<?xml version="1.0" encoding="UTF-8" standalone="no"?>
<!-- Created with Inkscape (http://www.inkscape.org/) -->

<svg
   width="210mm"
   height="297mm"
   viewBox="0 0 210 297"
   version="1.1"
   id="svg1"
   xmlns="http://www.w3.org/2000/svg"
   xmlns:svg="http://www.w3.org/2000/svg">
  <defs
     id="defs1" />
  <g
     id="layer1">
    <path
       d="m 86.615641,676.47413 c -0.384,-3.584 -2.112,-6.72 -4.544,-9.344 -2.56,-2.816 -5.76,-4.864 -8.896,-7.04 -2.88,-1.984 -6.272,-4.224 -7.808,-7.552 -1.536,-3.264 -0.128,-7.872 3.392,-9.216 1.6,-0.704 3.52,-0.256 4.928,0.768 1.856,1.28 2.24,3.328 2.368,5.44 0.064,1.408 2.24,1.408 2.176,0 -0.128,-1.792 -0.32,-3.712 -1.344,-5.248 -0.896,-1.344 -2.176,-2.304 -3.648,-2.88 -3.136,-1.28 -6.528,-0.256 -8.64,2.368 -1.92,2.432 -2.624,5.952 -1.536,8.896 1.152,3.2 3.904,5.568 6.528,7.552 5.696,4.352 13.76,8.128 14.848,16.064 0.512,3.712 -0.576,7.808 -3.072,10.688 -2.24,2.56 -5.632,3.968 -8.96,4.16 -3.712,0.128 -7.232,-1.216 -9.408,-4.288 -1.984,-2.816 -2.624,-6.4 -1.536,-9.6 0.448,-1.344 -1.664,-1.92 -2.112,-0.576 -1.92,5.824 1.024,12.864 6.592,15.424 6.208,2.816 14.144,0.576 17.984,-4.992 2.112,-3.008 3.136,-6.912 2.688,-10.624 z m 25.919999,-0.256 c -1.728,3.712 -4.032,7.936 -7.872,9.792 -2.304,1.152 -5.248002,1.088 -6.976002,-0.96 -2.112,-2.432 -2.432,-6.208 -2.56,-9.28 -0.128,-4.224 0.192,-8.512 0.704,-12.736 0.192,-0.064 0.448,-0.128 0.64,-0.128 3.072,-0.832 5.760002,-2.304 9.024002,-1.536 1.344,0.384 1.92,-1.728 0.576,-2.048 -3.136,-0.832 -5.696,0.064 -8.640002,1.024 -0.448,0.128 -0.896,0.256 -1.344,0.384 0.064,-0.384 0.064,-0.768 0.128,-1.152 0.704,-5.76 1.664,-11.52 2.624,-17.28 0.256,-1.408 -1.856,-1.984 -2.112,-0.64 -0.896,5.632 -1.856,11.2 -2.56,16.768 -0.064,0.896 -0.192,1.792 -0.32,2.688 -1.664,0.128 -3.264,-0.192 -4.864,-1.344 -1.152,-0.832 -2.24,1.088 -1.088,1.92 1.728,1.28 3.712,1.728 5.696,1.664 -0.448,4.224 -0.832,8.576 -0.64,12.8 0.192,3.584 0.704,7.68 3.2,10.432 2.048,2.368 5.312002,2.816 8.192002,1.856 4.992,-1.6 8,-6.656 10.048,-11.136 0.64,-1.28 -1.28,-2.368 -1.856,-1.088 z m 21.43998,-0.064 c -2.24,4.928 -7.104,12.48 -13.568,10.432 -3.072,-0.96 -4.672,-4.16 -5.312,-7.104 -0.896,-3.904 -0.192,-8.384 0.64,-12.224 0.256,-1.344 -1.856,-1.92 -2.112,-0.576 -1.344,6.336 -2.176,13.888 2.112,19.264 1.664,2.112 4.352,3.264 7.04,3.136 2.624,-0.128 4.992,-1.408 6.976,-3.136 2.688,-2.304 4.672,-5.504 6.144,-8.704 0.576,-1.28 -1.28,-2.368 -1.92,-1.088 z m -18.688,-13.184 c 0.576,0 1.152,-0.32 1.408,-0.896 0.384,-0.96 0.128,-2.24 -0.96,-2.56 -0.576,-0.128 -1.152,0 -1.6,0.384 -0.064,0.128 -0.128,0.192 -0.192,0.32 -0.192,0.192 -0.32,0.384 -0.384,0.576 -0.128,0.576 -0.064,1.216 0.32,1.664 0.384,0.384 0.896,0.512 1.408,0.512 z m 38.4,13.248 c -1.728,3.712 -4.032,7.936 -7.872,9.792 -2.304,1.152 -5.248,1.088 -6.976,-0.96 -2.112,-2.432 -2.432,-6.208 -2.56,-9.28 -0.128,-4.224 0.192,-8.512 0.704,-12.736 0.192,-0.064 0.448,-0.128 0.64,-0.128 3.072,-0.832 5.76,-2.304 9.024,-1.536 1.344,0.384 1.92,-1.728 0.576,-2.048 -3.136,-0.832 -5.696,0.064 -8.64,1.024 -0.448,0.128 -0.896,0.256 -1.344,0.384 0.064,-0.384 0.064,-0.768 0.128,-1.152 0.704,-5.76 1.664,-11.52 2.624,-17.28 0.256,-1.408 -1.856,-1.984 -2.112,-0.64 -0.896,5.632 -1.856,11.2 -2.56,16.768 -0.064,0.896 -0.192,1.792 -0.32,2.688 -1.664,0.128 -3.264,-0.192 -4.864,-1.344 -1.152,-0.832 -2.24,1.088 -1.088,1.92 1.728,1.28 3.712,1.728 5.696,1.664 -0.448,4.224 -0.832,8.576 -0.64,12.8 0.192,3.584 0.704,7.68 3.2,10.432 2.048,2.368 5.312,2.816 8.192,1.856 4.992,-1.6 8,-6.656 10.048,-11.136 0.64,-1.28 -1.28,-2.368 -1.856,-1.088 z m 25.34404,0.064 c -3.008,6.656 -9.792,13.184 -17.664,10.624 -7.232,-2.368 -7.296,-13.824 -1.344,-17.664 1.088,-0.64 2.368,-0.704 3.584,-0.384 1.792,0.512 2.752,1.92 3.2,3.712 0.32,1.344 2.432,0.768 2.112,-0.576 -0.896,-3.712 -4.288,-6.144 -8.128,-5.376 -4.096,0.896 -6.592,5.696 -7.104,9.472 -0.512,4.224 0.704,8.896 4.224,11.456 3.392,2.432 8.32,2.688 12.032,1.152 4.992,-2.112 8.768,-6.464 11.008,-11.328 0.576,-1.28 -1.344,-2.368 -1.92,-1.088 z m 33.34393,-0.064 c -1.792,3.84 -4.288,8.256 -8.256,10.24 -1.536,0.768 -3.2,0.896 -4.736,0.32 -1.856,-0.704 -2.56,-2.176 -2.88,-4.096 -0.32,-2.368 -0.192,-4.8 -0.256,-7.168 -0.064,-2.176 -0.32,-4.544 -1.856,-6.208 -1.408,-1.536 -3.52,-1.792 -5.44,-1.216 -2.048,0.576 -3.584,2.176 -4.736,3.84 -1.216,1.728 -2.176,3.584 -2.944,5.568 0.128,-2.432 0.32,-4.928 0.512,-7.36 4.224,-4.8 8.384,-9.92 10.56,-15.936 1.408,-3.904 2.688,-13.12 -4.032,-12.672 -4.032,0.32 -5.44,5.44 -6.144,8.64 -1.088,4.864 -1.536,9.92 -2.048,14.848 -0.832,7.68 -1.344,15.36 -1.536,23.04 0,1.344 2.048,1.408 2.176,0.128 0.064,-0.064 0.064,-0.128 0.064,-0.256 0.64,-4.928 2.176,-10.048 4.864,-14.336 1.152,-1.728 2.752,-3.52 4.992,-3.584 2.624,-0.128 3.2,2.624 3.392,4.736 0.128,2.368 -0.064,4.672 0.192,7.04 0.128,1.792 0.448,3.648 1.6,5.12 2.24,2.752 6.336,2.944 9.344,1.472 4.288,-2.176 7.104,-6.848 9.024,-11.072 0.64,-1.216 -1.28,-2.368 -1.856,-1.088 z m -28.736,-21.952 c 0.448,-3.072 0.896,-7.04 3.008,-9.472 1.216,-1.472 3.456,-1.472 4.288,0.448 0.96,2.176 0.384,4.864 -0.256,7.04 -1.536,5.312 -4.928,9.92 -8.512,14.144 0.384,-4.096 0.896,-8.128 1.472,-12.16 z m 50.17599,21.888 c -2.24,4.928 -7.104,12.48 -13.568,10.432 -3.072,-0.96 -4.672,-4.16 -5.312,-7.104 -0.896,-3.904 -0.192,-8.384 0.64,-12.224 0.256,-1.344 -1.856,-1.92 -2.112,-0.576 -1.344,6.336 -2.176,13.888 2.112,19.264 1.664,2.112 4.352,3.264 7.04,3.136 2.624,-0.128 4.992,-1.408 6.976,-3.136 2.688,-2.304 4.672,-5.504 6.144,-8.704 0.576,-1.28 -1.28,-2.368 -1.92,-1.088 z m -18.688,-13.184 c 0.576,0 1.152,-0.32 1.408,-0.896 0.384,-0.96 0.128,-2.24 -0.96,-2.56 -0.576,-0.128 -1.152,0 -1.6,0.384 -0.064,0.128 -0.128,0.192 -0.192,0.32 -0.192,0.192 -0.32,0.384 -0.384,0.576 -0.128,0.576 -0.064,1.216 0.32,1.664 0.384,0.384 0.896,0.512 1.408,0.512 z m 53.88801,13.248 c -1.472,3.072 -3.2,6.016 -5.632,8.384 -1.792,1.728 -4.096,3.2 -6.592,3.264 -2.048,0 -3.968,-0.896 -4.992,-2.688 -0.96,-1.728 -1.088,-3.84 -1.152,-5.76 -0.128,-3.52 0.64,-8.64 -2.304,-11.264 -2.816,-2.56 -6.976,-1.472 -9.28,1.152 -1.152,1.344 -2.112,2.944 -2.816,4.608 0.064,-2.176 0.192,-4.416 0.32,-6.592 0.128,-1.408 -2.048,-1.408 -2.176,0 -0.448,6.848 -0.384,13.632 -0.704,20.48 0,0.704 0.512,1.024 1.088,1.024 0.576,0 1.152,-0.32 1.152,-1.024 0.128,-3.456 0.512,-6.848 1.408,-10.112 0.64,-2.304 1.536,-4.608 3.008,-6.464 0.896,-1.216 2.176,-2.304 3.776,-2.368 1.472,-0.064 2.88,0.576 3.52,1.92 0.768,1.6 0.704,3.648 0.768,5.376 0.064,2.176 0,4.288 0.32,6.4 0.32,1.92 0.96,3.904 2.368,5.312 1.6,1.536 3.904,2.24 6.016,2.112 6.72,-0.32 11.2,-7.232 13.76,-12.672 0.576,-1.28 -1.28,-2.368 -1.856,-1.088 z m 32.57599,0.064 c -2.944,6.08 -7.552,10.88 -13.312,14.272 -0.192,0.128 -0.448,0.256 -0.64,0.384 0,-0.256 0,-0.576 0,-0.896 0.128,-3.712 0.064,-7.552 -0.32,-11.264 -0.32,-2.816 -0.64,-6.144 -2.176,-8.64 -0.704,-1.344 -1.792,-2.368 -3.456,-2.944 -3.648,-1.344 -7.68,0.32 -10.048,3.264 -2.752,3.456 -3.584,8.96 -2.048,13.12 0.832,2.048 2.368,4.096 4.48,4.928 2.048,0.768 4.672,0.704 6.528,-0.448 2.368,-1.472 3.904,-3.776 4.8,-6.336 0.064,1.792 0.128,3.584 0.128,5.44 0,1.664 -0.064,3.328 -0.128,4.992 -0.832,0.448 -1.664,0.896 -2.432,1.344 -2.816,1.664 -6.08,3.392 -8.192,5.888 -2.24,2.688 -3.52,6.912 -1.984,10.24 1.6,3.52 5.888,4.288 8.96,2.048 3.2,-2.368 4.352,-6.656 4.928,-10.368 0.448,-2.56 0.704,-5.184 0.832,-7.808 0.768,-0.384 1.6,-0.832 2.368,-1.344 5.824,-3.52 10.624,-8.512 13.568,-14.784 0.576,-1.28 -1.28,-2.368 -1.856,-1.088 z m -20.288,8.384 c -1.408,1.536 -2.816,2.304 -4.864,2.112 -1.984,-0.128 -3.52,-1.408 -4.416,-3.072 -2.88,-5.568 0.64,-16.192 8.256,-14.656 1.28,0.256 2.176,0.896 2.752,1.792 0,0 0.192,0.256 0.256,0.384 0.704,1.216 0.896,2.816 0.96,4.352 0,0 0,0.064 0,0.064 -0.064,3.072 -0.832,6.72 -2.944,9.024 z m 3.84,11.52 c -0.32,3.712 -0.704,7.68 -2.496,11.008 -0.832,1.664 -2.112,3.136 -4.032,3.52 -1.728,0.384 -3.2,-0.512 -3.904,-2.112 -1.408,-3.072 0.512,-6.976 2.944,-9.024 2.304,-1.92 4.928,-3.392 7.552,-4.8 0,0.448 -0.064,0.96 -0.064,1.408 z"
       id="text6"
       style="font-size:64px;font-family:'MADE Likes Script';-inkscape-font-specification:'MADE Likes Script';white-space:pre;stroke-width:0.944"
       transform="matrix(0.47320527,0,0,0.25575858,3.9728024,-18.119737)"
       aria-label="Stitching" />
  </g>
</svg>
