<?xml version="1.0" encoding="UTF-8" standalone="no"?>
<!-- Created with Inkscape (http://www.inkscape.org/) -->

<svg
   width="210mm"
   height="297mm"
   viewBox="0 0 210 297"
   version="1.1"
   id="svg1"
   xmlns="http://www.w3.org/2000/svg"
   xmlns:svg="http://www.w3.org/2000/svg">
  <defs
     id="defs1" />
  <g
     id="layer1">
    <path
       d="m 28.010699,127.35963 h -7.828355 q -0.0829,0 -0.201335,-0.15522 -0.118432,-0.15522 -0.118432,-0.23989 0,-0.0988 0.118432,-0.16933 0.118432,-0.0847 0.201335,-0.0847 h 7.828355 q 0.0829,0 0.142118,0.0847 0.07106,0.0705 0.07106,0.16933 0,0.0847 -0.07106,0.23989 -0.05922,0.15522 -0.142118,0.15522 z m -3.908256,9.31333 q -0.0829,0 -0.201334,-0.14111 -0.118432,-0.14111 -0.118432,-0.23989 v -9.32744 q 0,-0.0988 0.118432,-0.16933 0.118432,-0.0847 0.201334,-0.0847 0.07106,0 0.130275,0.0847 0.07106,0.0705 0.07106,0.16933 v 9.32744 q 0,0.0988 -0.07106,0.23989 -0.05922,0.14111 -0.130275,0.14111 z m 19.446534,-3.45722 h -5.305754 q -0.0829,0 -0.201333,-0.14111 -0.118433,-0.15523 -0.118433,-0.254 v -5.78556 q 0,-0.11288 0.118433,-0.18344 0.118431,-0.0847 0.201333,-0.0847 h 5.305754 q 0.568474,0 1.054046,0.254 0.497413,0.23989 0.864554,0.67734 0.367138,0.43744 0.568471,1.03011 0.213178,0.57855 0.213178,1.25588 0,0.635 -0.213178,1.22767 -0.201333,0.57856 -0.568471,1.03011 -0.367141,0.43745 -0.864554,0.70556 -0.485572,0.26811 -1.054046,0.26811 z m -5.080734,-0.64911 h 5.080734 q 0.438198,0 0.829024,-0.19756 0.402668,-0.21167 0.686905,-0.56444 0.296082,-0.35278 0.461885,-0.81845 0.177648,-0.46566 0.177648,-1.00189 0,-0.52211 -0.177648,-0.98777 -0.165803,-0.47978 -0.461885,-0.81845 -0.284237,-0.35277 -0.686905,-0.55033 -0.390826,-0.21167 -0.829024,-0.21167 h -5.080734 z m 7.555963,4.12044 H 39.22621 q -0.0829,0 -0.213178,-0.14111 -0.118433,-0.14111 -0.118433,-0.23989 v -8.128 q 0,-0.0988 0.07106,-0.16933 0.07106,-0.0706 0.153963,-0.0706 0.0829,-0.0988 0.153961,-0.0423 0.07106,0.0423 0.153961,0.0423 l 6.821683,8.09978 q 0,0.0988 0.03553,0.19755 0.04737,0.0988 -0.03553,0.19756 0,0.0988 -0.07106,0.18344 -0.05922,0.0706 -0.153961,0.0706 z m -6.596663,-0.64911 h 5.945287 l -5.945287,-7.08378 z m 16.201501,0.59267 q -0.0829,0 -0.153961,-0.0706 -0.05922,-0.0847 -0.05922,-0.18344 v -9.15811 q 0,-0.0988 0.05922,-0.23989 0.07106,-0.14111 0.153961,-0.14111 0.165806,0 0.236865,0.14111 0.0829,0.14111 0.0829,0.23989 v 9.15811 q 0,0.0988 -0.0829,0.18344 -0.07106,0.0706 -0.236865,0.0706 z m 15.869889,-2.31423 -4.832024,-2.30011 q -0.165805,0 -0.189492,-0.14111 -0.02369,-0.14111 -0.02369,-0.23989 0.0829,-0.0988 0.153961,-0.15522 0.0829,-0.0706 0.165805,0.0282 l 4.832024,2.30011 q 0.165806,0 0.189493,0.14112 0.02369,0.14111 0.02369,0.23988 -0.0829,0.0988 -0.165803,0.11289 -0.07106,0.0141 -0.153964,0.0141 z m -6.762466,2.30011 h -0.106589 q -0.0829,0 -0.09475,-0.14111 -0.01184,-0.14111 -0.01184,-0.23989 l 0.9593,-2.31422 2.913427,-6.88622 q 0.05921,-0.0706 0.130274,-0.18344 0.03553,-0.0564 0.07106,-0.0847 0.0829,0 0.153963,0.0847 0.0829,0.0847 0.165803,0.18344 l 3.860884,9.20044 q 0,0.0988 -0.01184,0.19756 -0.01184,0.0847 -0.09475,0.18344 -0.02369,0.0282 -0.05922,0.0423 -0.02368,0.0141 -0.07106,0.0141 -0.03553,0 -0.0829,-0.0564 l -6.549291,-2.17311 -0.852709,2.04611 q -0.0829,0.0988 -0.165805,0.11289 -0.07106,0.0141 -0.153961,0.0141 z m 1.397498,-2.80811 5.897913,2.04612 -3.434529,-8.05745 z m 14.792149,2.87867 q -0.0829,0 -0.201335,-0.14111 -0.118431,-0.14111 -0.118431,-0.23989 v -9.15811 q 0,-0.11289 0.118431,-0.18344 0.118434,-0.0706 0.201335,-0.0706 0.09475,0 0.153961,0.0706 0.05922,0.0706 0.05922,0.18344 v 9.15811 q 0,0.0988 -0.05922,0.23989 -0.05921,0.14111 -0.153961,0.14111 z m 7.686237,0 q -0.0829,0 -0.106589,-0.0564 -0.02369,-0.0706 -0.106589,-0.0706 l -7.686236,-9.15811 q -0.0829,-0.0988 -0.0829,-0.254 0,-0.16933 0.0829,-0.254 0.0829,-0.0988 0.213177,-0.0988 0.142119,0 0.213178,0.0988 l 7.686237,9.15811 q 0.0829,0.0847 0.0829,0.254 0,0.15522 -0.0829,0.254 -0.07106,0 -0.09475,0.0706 -0.02369,0.0564 -0.118433,0.0564 z m 0,0 q -0.0829,0 -0.201333,-0.14111 -0.118434,-0.14111 -0.118434,-0.23989 v -9.15811 q 0,-0.11289 0.118434,-0.18344 0.118431,-0.0706 0.201333,-0.0706 0.09475,0 0.153963,0.0706 0.05922,0.0706 0.05922,0.18344 v 9.15811 q 0,0.0988 -0.05922,0.23989 -0.05922,0.14111 -0.153963,0.14111 z m 13.003839,-0.0141 q -0.8527,0 -1.59883,-0.381 -0.746118,-0.381 -1.302748,-1.04423 -0.556631,-0.66322 -0.876398,-1.55222 -0.319766,-0.889 -0.319766,-1.905 0,-1.01599 0.319766,-1.9191 0.319767,-0.90312 0.876398,-1.59456 0.55663,-0.69144 1.302748,-1.08655 0.74613,-0.40923 1.59883,-0.40923 0.16581,0 0.23687,0.14112 0.0829,0.14111 0.0829,0.254 v 4.23333 h 3.55296 q 0.16581,0 0.24871,0.14111 0.0829,0.14111 0.0829,0.23988 0,1.016 -0.33161,1.905 -0.31976,0.889 -0.88824,1.55222 -0.55663,0.66323 -1.32644,1.04423 -0.7698,0.381 -1.65805,0.381 z m -0.21317,-9.11578 q -0.68691,0.0423 -1.30275,0.39512 -0.604008,0.33866 -1.054049,0.90311 -0.450042,0.56444 -0.722434,1.32644 -0.260552,0.74789 -0.260552,1.60866 0,0.87489 0.284237,1.651 0.284237,0.762 0.757966,1.34056 0.48557,0.56444 1.125102,0.90311 0.65138,0.33867 1.38565,0.33867 0.72244,0 1.37382,-0.29634 0.65137,-0.29633 1.13694,-0.81844 0.49742,-0.53622 0.80534,-1.25589 0.30793,-0.73378 0.34346,-1.60867 h -3.65956 q -0.0829,0 -0.15396,-0.0705 -0.0592,-0.0847 -0.0592,-0.18345 z m 17.824,9.11578 q -0.85271,0 -1.61067,-0.39512 -0.75797,-0.40922 -1.33828,-1.10066 -0.58032,-0.69144 -0.92377,-1.59456 -0.33161,-0.90311 -0.33161,-1.91911 v -4.62844 q 0,-0.0847 0.11843,-0.16933 0.11843,-0.0847 0.21318,-0.0847 0.071,0 0.14211,0.0847 0.0711,0.0847 0.0711,0.16933 v 4.62844 q 0,0.91723 0.28424,1.72156 0.28424,0.79022 0.76981,1.38289 0.49741,0.57855 1.16063,0.91722 0.67506,0.33867 1.44487,0.33867 0.72244,0 1.36197,-0.33867 0.65138,-0.33867 1.13695,-0.91722 0.48557,-0.59267 0.76981,-1.38289 0.28423,-0.80433 0.28423,-1.72156 v -4.62844 q 0,-0.0847 0.11843,-0.16933 0.11844,-0.0847 0.21318,-0.0847 0.0711,0 0.14212,0.0847 0.0711,0.0847 0.0711,0.16933 v 4.62844 q 0,1.016 -0.31977,1.91911 -0.31976,0.90312 -0.87639,1.59456 -0.55664,0.69144 -1.30276,1.10066 -0.74612,0.39512 -1.59883,0.39512 z m 21.31777,0 h -7.76914 q -0.0711,0 -0.14212,-0.0847 -0.0711,-0.0847 -0.0711,-0.16933 v -9.25689 q 0,-0.0847 0.0711,-0.22577 0.0711,-0.15523 0.14212,-0.15523 0.16581,0 0.24871,0.15523 0.0829,0.14111 0.0829,0.22577 v 8.86178 h 7.43753 q 0.1658,0 0.23686,0.14111 0.0829,0.14111 0.0829,0.254 0,0.0847 -0.0829,0.16933 -0.0711,0.0847 -0.23686,0.0847 z m 15.7633,-2.35656 -4.83203,-2.30011 q -0.16581,0 -0.18949,-0.14111 -0.0237,-0.14111 -0.0237,-0.23989 0.0829,-0.0988 0.15396,-0.15522 0.0829,-0.0705 0.16581,0.0282 l 4.83203,2.30011 q 0.1658,0 0.18949,0.14111 0.0237,0.14111 0.0237,0.23989 -0.0829,0.0988 -0.1658,0.11289 -0.0711,0.0141 -0.15396,0.0141 z m -6.76247,2.30011 h -0.10659 q -0.0829,0 -0.0947,-0.14111 -0.0118,-0.14111 -0.0118,-0.23989 l 0.9593,-2.31422 2.91343,-6.88622 q 0.0592,-0.0705 0.13027,-0.18344 0.0355,-0.0564 0.0711,-0.0847 0.0829,0 0.15396,0.0847 0.0829,0.0847 0.16581,0.18344 l 3.86088,9.20044 q 0,0.0988 -0.0118,0.19756 -0.0118,0.0847 -0.0947,0.18344 -0.0237,0.0282 -0.0592,0.0423 -0.0237,0.0141 -0.0711,0.0141 -0.0355,0 -0.0829,-0.0564 l -6.54929,-2.17311 -0.85271,2.04611 q -0.0829,0.0988 -0.16581,0.11289 -0.0711,0.0141 -0.15396,0.0141 z m 1.3975,-2.80811 5.89791,2.04611 -3.43453,-8.05744 z"
       id="text4"
       style="font-weight:250;font-size:53.3333px;font-family:'Eiforya Typeface';-inkscape-font-specification:'Eiforya Typeface weight=250';white-space:pre;fill:#000000;fill-opacity:1;stroke-width:0.229031;stroke-dasharray:none"
       aria-label="TrIAnguLA" />
  </g>
</svg>
