<?xml version="1.0" encoding="UTF-8" standalone="no"?>
<!-- Created with Inkscape (http://www.inkscape.org/) -->

<svg
   width="210mm"
   height="297mm"
   viewBox="0 0 210 297"
   version="1.1"
   id="svg1"
   xmlns="http://www.w3.org/2000/svg"
   xmlns:svg="http://www.w3.org/2000/svg">
  <defs
     id="defs1" />
  <g
     id="layer1">
    <path
       d="m 70.810772,866.7422 q -2.645332,0 -4.949331,-0.768 -3.071999,-0.93866 -5.375998,-2.98666 -2.389332,-1.96267 -3.839999,-4.77867 -2.986665,-6.22933 -0.767999,-14.25066 5.802664,-20.82132 29.013321,-32.51198 5.119998,-2.56 10.069329,-4.352 4.949331,-1.792 9.557325,-2.98667 0.768,-6.05866 1.024,-12.37332 0.42667,-7.50933 0.17067,-14.16533 -0.17067,-6.74133 -1.024,-12.288 -0.768,-5.63199 -2.13333,-9.89866 -1.36533,-4.352 -3.242667,-7.168 -2.047999,-3.24266 -5.97333,-3.24266 h -0.08533 q -1.877332,0.0853 -4.095998,0.85333 -2.133333,0.68267 -4.522665,2.13333 -5.205331,3.15734 -9.898662,8.53333 -4.693332,5.376 -7.679997,11.60533 -3.583999,7.25333 -3.925332,13.90933 -0.256,6.57066 2.645332,11.86133 0.426667,0.768 -0.341333,1.19466 -0.768,0.512 -1.109333,-0.34133 -3.327998,-6.05866 -2.730665,-13.48266 0.170666,-3.41333 1.109333,-6.82666 1.023999,-3.41334 2.730665,-6.99733 1.536,-3.24267 3.583999,-6.31467 2.047999,-3.072 4.437331,-5.71733 2.389332,-2.73066 4.949331,-4.94933 2.645333,-2.304 5.290665,-3.92533 5.119998,-3.072 9.557329,-3.24267 4.949331,0 7.509327,4.01067 4.096,6.22933 5.80266,18.68799 0.68267,5.632 0.85334,12.11733 0.256,6.48533 -0.17067,13.73866 -0.17067,2.98666 -0.42667,5.888 -0.17066,2.90133 -0.512,5.88799 5.97333,-1.45066 10.41067,-2.21866 0.85333,-0.17067 1.024,0.68266 0.17066,0.85334 -0.68267,1.024 -2.98667,0.512 -5.71733,1.10934 -2.73067,0.59733 -5.29067,1.28 -0.42666,3.41333 -0.93866,6.74133 -0.42667,3.328 -1.10934,6.57066 -1.27999,6.656 -2.90133,12.20266 -1.535993,5.632 -3.327992,9.984 -2.645332,7.50933 -6.485331,13.05599 -3.754665,5.54667 -8.533329,8.78933 -2.133333,1.45067 -4.351999,2.304 -2.133332,0.93867 -4.437331,1.36533 -1.535999,0.256 -3.157332,0.256 z m 33.535988,-60.7573 q -12.031997,3.328 -20.39466,7.85066 -8.27733,4.608 -13.738661,9.728 -5.375998,5.20533 -8.362663,10.58132 -2.986666,5.46134 -4.351999,10.32533 -1.109332,4.096 -0.767999,7.424 0.341333,3.328 1.706666,5.80266 1.279999,2.56 3.413332,4.18134 2.133332,1.70666 4.522664,2.47466 3.583999,1.19467 7.594664,0.34134 4.010665,-0.768 7.76533,-3.328 4.607998,-3.072 8.191997,-8.448 3.669331,-5.29066 6.22933,-12.54399 v -0.0853 q 2.730666,-6.4 4.778669,-15.35999 2.13333,-8.87466 3.41333,-18.94399 z m 18.94405,5.29066 q -0.68267,0 -1.45067,-0.17067 -0.68267,-0.0853 -1.19467,-0.768 -0.42666,-0.68266 -0.256,-1.70666 0.17067,-0.93867 0.59734,-2.21867 -0.17067,0 -0.256,-0.0853 -2.64533,-1.45067 -3.24267,-3.84 -0.59733,-2.13333 0,-3.24266 0.68267,-1.10934 1.36534,-1.536 0.85333,-0.59734 2.04799,-0.85334 1.19467,-0.256 2.56,-0.0853 1.36534,0.0853 2.64534,0.59733 1.36533,0.42667 2.47466,1.19467 1.70667,1.19467 2.304,2.73067 0.68267,1.53599 0.17067,3.24266 -0.256,1.10933 -0.85334,2.048 5.54667,0.17067 12.45867,-0.85333 6.99733,-1.10934 15.10399,-3.84 0.768,-0.256 1.10933,0.59733 0.256,0.768 -0.59733,1.024 -5.71733,1.96267 -11.008,2.98667 -5.29066,1.024 -10.23999,1.45066 -1.87733,0.17067 -3.92533,0.256 -2.048,0.17067 -4.096,0 -1.19467,1.36534 -2.73067,2.21867 -1.45066,0.85333 -2.98666,0.85333 z m -0.768,-4.18133 q -0.256,0.768 -0.42667,1.36533 -0.17067,0.68267 0,0.85334 0,0.0853 0.17067,0.17066 0.256,0.0853 1.024,0.0853 1.70666,0 3.49866,-1.536 -2.21866,-0.256 -4.26666,-0.93867 z m 0.59733,-1.536 q 2.21867,0.68267 5.12,0.93867 0.93866,-1.19467 1.19466,-2.38934 0.42667,-1.45066 -0.256,-2.47466 -0.68266,-1.024 -1.62133,-1.62133 -0.85333,-0.59734 -1.96266,-1.024 -1.024,-0.42667 -2.13334,-0.512 -1.10933,-0.17067 -2.13333,0 -0.93867,0.17066 -1.536,0.59733 -1.19466,0.85333 -0.68266,2.90133 0.51199,1.792 2.47466,2.90133 0.256,-0.68266 1.024,-0.42666 0.768,0.34133 0.512,1.10933 z m 34.04807,13.73866 q -1.792,0 -2.90134,-0.59733 -1.27999,-0.68267 -1.45066,-2.304 -0.17067,-3.41333 3.41333,-5.97333 2.98667,-2.21867 8.36266,-3.84 0.93867,-0.34133 1.792,-0.59733 0.93867,-0.256 1.87734,-0.512 -0.768,-1.10934 -2.47467,-1.45067 -1.62133,-0.42667 -3.84,-0.59733 -0.68266,-0.0853 -1.36533,-0.0853 -0.68267,-0.0853 -1.19467,-0.256 -1.45066,-0.34133 -2.304,-1.28 -0.93866,-0.93866 -1.10933,-2.13333 0,-0.512 0.17067,-1.10933 0.0853,-0.68267 0.68266,-1.45067 0.59734,-0.768 1.70667,-1.536 1.19467,-0.85333 3.15733,-1.536 2.73067,-1.10933 3.24267,-0.0853 0.59733,0.85333 -0.59734,2.048 -0.68266,0.512 -1.19466,-0.0853 -0.256,-0.256 -0.256,-0.512 -0.17067,0.0853 -0.34134,0.0853 -0.0853,0 -0.256,0.0853 -2.21866,0.93867 -3.49866,1.96267 -1.19467,1.024 -1.10933,1.96267 0.17066,1.45066 2.048,1.87733 0.42666,0.17067 1.024,0.256 0.68266,0 1.36533,0.0853 1.36533,0.0853 2.816,0.34133 1.45066,0.17067 2.73066,0.768 1.536,0.768 2.38933,2.21867 3.84,-0.93867 7.68,-1.536 3.92533,-0.59733 7.168,-1.10933 1.536,-0.256 2.64533,-0.34134 1.19467,-0.17066 1.45067,-0.256 0.85333,-0.17066 1.024,0.68267 0.17066,0.85333 -0.68267,1.024 -0.512,0.0853 -0.93867,0.17067 -0.34133,0 -0.768,0.0853 -0.42666,0 -1.024,0.0853 -0.512,0.0853 -1.45066,0.256 -3.15733,0.42667 -6.99733,1.10934 -3.75467,0.59733 -7.59467,1.45066 0.0853,0.42667 0.0853,0.768 0,0.34134 0,0.768 -0.0853,0.768 -0.34134,1.87733 -0.17066,1.19467 -0.85333,2.47467 -1.45066,2.816 -5.03466,4.77867 -1.62134,0.85333 -3.584,1.36533 -1.96267,0.59733 -3.66933,0.59733 z m 11.69066,-12.20266 q -0.93867,0.256 -1.87733,0.512 -0.93867,0.256 -1.87734,0.59733 -10.83733,3.328 -10.58133,8.10667 0,0.59733 0.59734,0.85333 1.19466,0.68266 3.66933,0.256 2.56,-0.42667 4.77866,-1.62133 1.70667,-0.93867 2.73067,-1.96267 1.10933,-1.024 1.62133,-2.048 0.59734,-0.93867 0.768,-1.96267 0.256,-0.93866 0.256,-1.70666 0,-0.68267 -0.0853,-1.024 z m 21.33325,5.46133 q -0.68266,-0.0853 -1.024,-0.93867 -0.34133,-0.768 -0.42666,-1.87733 -0.0853,-1.10933 -0.0853,-2.304 0,-1.19466 -0.0853,-2.048 -0.0853,-2.816 -0.0853,-6.65599 -0.0853,-3.92534 0,-8.192 0.17066,-4.52267 0.42666,-8.192 0.256,-3.66933 0.68267,-6.57066 1.28,-7.50933 3.584,-9.216 0.68267,-0.512 1.19467,0.17067 0.42666,0.768 -0.17067,1.19467 -0.512,0.34133 -1.10933,1.536 -0.59734,1.10933 -1.19467,3.66933 -0.59733,2.47466 -1.10933,6.74133 -0.42667,4.18133 -0.59734,10.66666 -0.17066,4.18133 -0.0853,8.10666 0.0853,3.84 0.17067,6.656 0.0853,2.048 0.0853,3.328 0.0853,1.36533 0.0853,1.70666 0.42667,-0.59733 0.93867,-1.62133 0.59733,-1.024 1.024,-1.96266 1.62133,-2.98667 2.73067,-4.69334 1.19466,-1.79199 2.38933,-1.96266 0.85333,-0.17067 1.536,0.512 0.68266,0.85333 1.024,1.87733 0.42666,1.024 0.68266,1.96267 0.42667,1.45066 0.68267,2.13333 0.34133,0.59733 1.10933,0.68267 2.816,0.17066 7.50933,-1.36534 4.77867,-1.536 10.83733,-3.92533 0.768,-0.34133 1.10933,0.42667 0.34134,0.768 -0.42666,1.10933 -7.25333,2.90133 -11.776,4.26667 -4.43733,1.36533 -7.33866,1.19466 -1.536,-0.0853 -2.47467,-1.536 -0.34133,-0.59733 -0.59733,-1.19466 -0.17067,-0.68267 -0.34133,-1.36534 -0.17067,-0.93866 -0.512,-1.70666 -0.256,-0.768 -0.768,-1.36534 l -0.0853,-0.0853 q -0.0853,0.0853 -0.42666,0.34133 -0.34134,0.256 -1.024,1.36534 -0.59733,0.93866 -1.19467,1.96266 -0.512,1.024 -1.10933,2.13334 -1.28,2.55999 -2.13333,3.75466 -0.768,1.28 -1.62134,1.28 z m 64.34131,2.56 q -0.17066,0 -0.34133,-0.0853 -0.17067,0 -0.17067,-0.17067 -0.17066,-2.38933 -1.10933,-5.12 -0.85333,-2.64533 -2.048,-5.29066 -1.19466,-2.73067 -2.38933,-5.20533 -1.10933,-2.56 -1.70667,-4.77867 -0.512,-1.87733 -0.0853,-2.64533 0.42667,-0.85333 2.13333,-1.36533 1.96267,-0.59734 5.97333,-1.024 4.096,-0.42667 11.008,-0.93867 6.31466,-0.42667 13.99466,-1.10933 7.76533,-0.68267 17.23733,-1.792 0.93866,-0.17067 0.93866,0.68266 0.17067,0.85334 -0.68266,1.024 -9.55733,1.10934 -17.32266,1.792 -7.76533,0.68267 -13.99466,1.10934 -4.26667,0.34133 -7.59467,0.59733 -3.24266,0.256 -5.632,0.59733 -1.19466,0.17067 -2.13333,0.34134 -0.85333,0.0853 -1.45066,0.34133 -0.68267,0.256 -0.85334,0.68267 -0.0853,0.34133 0.17067,1.27999 0.59733,1.70667 1.62133,4.01067 1.024,2.304 2.048,4.94933 1.10933,2.56 1.96267,5.29067 0.85333,2.73066 1.024,5.29066 0,0.42667 0.17066,0.68267 0.17067,0.256 -0.0853,0.512 -0.256,0.34133 -0.68267,0.34133 z m 0.256,0.42667 q -0.512,0 -0.768,-0.512 -0.17066,-0.34134 -0.34133,-1.10934 -0.17067,-0.68266 -0.34133,-2.304 -0.0853,-1.536 -0.0853,-4.26666 0,-2.64533 0.17067,-6.82666 0.0853,-2.38934 0.17067,-4.096 0.0853,-1.792 0.17066,-3.66933 0.0853,-1.96267 0.256,-4.43734 0.17067,-2.56 0.512,-6.57066 0.512,-6.74133 1.10934,-13.14133 0.59733,-6.4 1.024,-11.34933 0.512,-5.03466 0.768,-8.10666 0.34133,-3.072 0.34133,-3.15733 0.17067,-0.93867 0.93866,-0.768 0.93867,0 0.768,0.93866 0,0.0853 -0.34133,3.15734 -0.256,3.072 -0.768,8.10666 -0.42666,4.94933 -1.024,11.34933 -0.59733,6.4 -1.10933,13.14133 -0.34133,4.01066 -0.512,6.48533 -0.17067,2.47466 -0.256,4.43733 -0.0853,1.87733 -0.17067,3.66933 -0.0853,1.70667 -0.17066,4.096 -0.17067,3.92533 -0.17067,6.48533 0,2.47467 0.0853,4.01066 0.0853,1.536 0.17067,2.21867 0.17067,0.68267 0.34133,0.93867 0.34134,0.768 -0.42666,1.19466 -0.0853,0 -0.17067,0 -0.0853,0.0853 -0.17067,0.0853 z m 32.08532,10.15466 q -0.68266,0 -0.768,-0.512 -0.42666,-1.024 -0.768,-4.01067 -0.256,-2.90133 -0.42666,-7.25333 -0.17067,-4.26666 -0.17067,-9.55733 0,-5.37599 0.0853,-11.09332 0.17067,-5.71734 0.42667,-11.43467 0.256,-5.80266 0.768,-11.00799 0.512,-5.71733 1.024,-11.09333 0.59733,-5.376 1.10933,-9.55733 0.512,-4.18133 0.85334,-6.656 0.34133,-2.56 0.34133,-2.64533 0,-0.768 0.93867,-0.768 0.85333,0.17067 0.68266,0.93867 0,0.0853 -0.34133,2.64533 -0.256,2.47466 -0.768,6.656 -0.512,4.18133 -1.10933,9.55733 -0.512,5.37599 -1.024,11.09332 -0.85334,9.64267 -1.10934,18.85866 -0.256,9.13067 -0.17066,16.55466 0.0853,7.33867 0.42666,12.20266 0.34134,4.94934 0.768,5.888 0.34134,0.768 -0.42666,1.10933 -0.0853,0.0853 -0.34134,0.0853 z m 33.87729,-23.72266 q 0.59733,-0.42666 1.024,0.256 0.42667,0.59733 -0.17067,1.024 -1.792,1.28 -4.01066,2.21867 -2.21867,0.93866 -4.608,1.536 -2.304,0.512 -4.608,0.768 -2.304,0.34133 -4.26666,0.34133 -4.26667,0 -6.05867,-2.21867 -0.93866,-1.10933 -1.19466,-2.38933 -0.17067,-1.36533 -0.0853,-2.47466 0.0853,-1.19467 0.256,-1.96267 0.256,-0.768 0.256,-0.85333 0.34134,-0.85334 1.10934,-0.512 0.85333,0.256 0.512,1.10933 0,0 -0.17067,0.68267 -0.17067,0.59733 -0.256,1.536 -0.0853,0.93866 0,1.96266 0.17067,1.024 0.85333,1.792 0.68267,0.768 1.87733,1.28 1.28,0.512 2.98667,0.512 1.792,0 3.92533,-0.256 2.13333,-0.256 4.352,-0.768 2.304,-0.59733 4.43733,-1.45067 2.13333,-0.85333 3.84,-2.13333 z m -22.01599,-6.4 q -0.0853,0 -0.256,0 -0.0853,-0.0853 -0.42667,-0.256 -0.768,-0.42666 -0.34133,-1.19466 0.17067,-0.34134 0.512,-0.42667 0.34133,-0.0853 0.59733,0.0853 l 0.34133,0.17067 q 0.768,0.42667 0.34134,1.19467 -0.256,0.42666 -0.768,0.42666 z m 30.208,15.70133 h -0.68267 -0.17067 q -0.512,0 -1.36533,-0.0853 -0.85333,-0.0853 -1.87733,-0.34134 -0.93867,-0.256 -1.87733,-0.768 -0.85334,-0.42666 -1.536,-1.27999 -1.70667,-2.13334 -0.93867,-5.97334 1.28,-6.39999 4.18133,-6.74133 2.56,-0.42666 5.29067,4.26667 0.42666,0.768 -0.34134,1.19467 -0.768,0.51199 -1.10933,-0.34134 -2.13333,-3.66933 -3.584,-3.41333 -0.42666,0.0853 -0.768,0.42667 -0.34133,0.34133 -0.59733,0.768 -0.768,1.45066 -1.45067,4.18133 -0.512,2.98666 0.59734,4.52266 0.512,0.68267 1.19466,1.024 0.768,0.42667 1.536,0.59734 0.768,0.17066 1.45067,0.17066 0.768,0.0853 1.19466,0.0853 h 0.256 q 2.304,0.0853 5.03467,-0.42667 2.816,-0.512 5.54666,-1.36533 2.816,-0.85334 5.376,-1.792 2.56,-1.024 4.52267,-1.87734 2.04799,-0.93866 3.24266,-1.536 1.28,-0.59733 1.28,-0.59733 0.85333,-0.34133 1.10933,0.42667 0.34134,0.68266 -0.34133,1.10933 -0.0853,0 -2.304,1.10933 -2.21866,1.10934 -6.31466,2.64534 -10.496,4.01066 -16.55466,4.01066 z m 38.14402,3.072 q -0.256,0 -0.768,-0.17067 -0.42667,-0.17066 -1.28,-0.68266 -0.768,-0.512 -1.96267,-1.536 -1.19466,-0.93867 -2.90133,-2.64533 -2.64533,-2.47467 -3.92533,-3.92534 -0.42667,1.024 -0.768,1.792 -0.256,0.68267 -0.42667,1.28 0.0853,1.10934 0.0853,1.70667 0.0853,0.59733 0.0853,0.68266 0,0.768 -0.768,0.93867 h -0.0853 q -0.59734,0 -0.85334,-0.59733 -0.17066,-0.256 -0.256,-0.93867 -0.0853,-0.68266 0.0853,-1.792 -0.17067,-2.47466 -0.256,-6.82666 -0.0853,-4.43733 0,-9.55733 0.512,-20.30933 4.43733,-25.59999 0.512,-0.68267 1.19467,-0.17067 0.34133,0.17067 0.34133,0.59734 0.0853,0.34133 -0.17067,0.59733 -1.792,2.47466 -2.90133,8.704 -1.024,6.22933 -1.19467,15.87199 -0.0853,3.49866 -0.0853,6.656 0.0853,3.07199 0.17067,5.63199 0.0853,-0.34133 0.34133,-0.59733 0,-0.256 0.256,-0.512 1.19467,-2.048 2.90133,-4.352 1.792,-2.38933 4.18133,-5.12 0.512,-0.68266 1.19467,0 0.59733,0.512 0.0853,1.19467 -2.56,2.90133 -4.18133,5.03467 -1.536,2.04799 -2.56,3.75466 0.59734,0.68267 1.70667,1.87733 1.10933,1.10934 2.47466,2.38934 1.70667,1.70666 2.816,2.55999 1.10934,0.93867 1.70667,1.36534 0.68267,0.512 0.93867,0.59733 0.34133,0.0853 0.34133,0.0853 0.85333,0 0.85333,0.85334 0,0.85333 -0.85333,0.85333 z m 8.96006,-2.64533 q -2.73067,0 -4.608,-0.768 -0.93866,-0.42667 -1.62133,-1.024 -0.68267,-0.512 -1.10933,-1.36533 -1.70667,-3.49867 0.34133,-6.99733 0.93867,-1.70667 2.56,-2.90134 1.62133,-1.19466 3.072,-1.19466 1.19466,0 1.70666,0.85333 0.59734,0.768 0.256,1.96267 -0.512,1.70666 -3.92533,3.66933 -0.59733,0.42666 -1.10933,0.768 -0.512,0.256 -0.93867,0.42666 -0.512,0.256 -0.93866,0.42667 h -0.0853 q 0,1.28 0.85334,2.64533 1.28,1.70667 5.29066,1.792 4.096,0.0853 10.24,-1.62133 5.29066,-1.45067 9.72799,-3.24267 4.43733,-1.792 6.4,-3.15733 0.768,-0.42666 1.19467,0.17067 0.512,0.68266 -0.17067,1.19466 -2.13333,1.45067 -6.656,3.328 -4.52266,1.87734 -10.06933,3.328 -2.47466,0.68267 -5.20533,1.19467 -2.73066,0.512 -5.20533,0.512 z m -1.36533,-12.544 q -0.68267,0 -1.96267,0.85334 -1.28,0.768 -2.21866,2.38933 -0.17067,0.256 -0.34134,0.512 -0.0853,0.256 -0.17066,0.59733 1.45066,-0.68267 2.98666,-1.792 1.62133,-1.10933 2.048,-2.048 0.17067,-0.512 -0.34133,-0.512 z m 29.0986,2.56 q 0.34134,1.28 0.42667,2.64533 0.17067,1.28 0.256,2.64534 0.34133,-0.68267 0.768,-1.36534 0.42667,-0.68266 0.85333,-1.36533 0.68267,-0.93867 1.19467,-1.70667 0.59733,-0.768 1.19466,-1.27999 1.28,-1.19467 2.64534,-0.93867 1.36533,0.17067 2.048,1.536 0.512,1.024 0.68266,2.38933 0.17067,1.28 0.68267,2.47467 0.512,1.10933 1.62133,1.792 1.19467,0.768 3.75467,0.68266 1.19466,0 4.01066,-0.42666 2.90133,-0.34134 6.74133,-1.19467 3.84,-0.85333 8.192,-2.21867 4.43733,-1.36533 8.61866,-3.41333 0.768,-0.34133 1.19467,0.42667 0.34133,0.768 -0.42667,1.10933 -4.352,2.048 -8.87466,3.41333 -4.43733,1.36534 -8.36266,2.21867 -3.92534,0.85333 -6.912,1.28 -2.90133,0.42666 -4.096,0.512 -3.66933,0.256 -5.29066,-1.10934 -1.62134,-1.27999 -2.21867,-2.98666 -0.59733,-1.792 -0.768,-3.24267 -0.17067,-1.536 -0.93867,-1.62133 -0.17066,0 -0.68266,0.256 -0.512,0.256 -1.28,1.19467 -0.768,0.85333 -1.87733,2.56 -1.024,1.70666 -2.38934,4.60799 -0.42666,0.93867 -1.10933,0.68267 -0.59733,-0.256 -0.59733,-1.10933 0,-0.34134 -0.0853,-1.70667 0,-1.36533 -0.17066,-3.072 -0.256,-2.21866 -0.512,-3.41333 -0.0853,-0.256 0.0853,-0.512 0.256,-0.256 0.512,-0.34133 0.34133,-0.0853 0.59733,0.0853 0.34134,0.0853 0.512,0.512 z"
       id="text7"
       style="font-size:85.3333px;font-family:Shears;-inkscape-font-specification:Shears;white-space:pre;stroke-width:0.944"
       transform="matrix(0.20858051,0,0,0.1771638,3.0050471,64.699853)"
       aria-label="Josh Hicken" />
  </g>
</svg>
