<?xml version="1.0" encoding="UTF-8"?>
<svg xmlns="http://www.w3.org/2000/svg" version="1.1" width="589" height="589" viewBox="0 0 589 589">
<line x1="294.5" y1="88.35" x2="500.65" y2="217.194" stroke="#1982c4" stroke-width="2" stroke-linecap="round" stroke-linejoin="round"/>
<line x1="500.65" y1="217.194" x2="449.113" y2="500.65" stroke="#1982c4" stroke-width="2" stroke-linecap="round" stroke-linejoin="round"/>
<line x1="449.113" y1="500.65" x2="114.119" y2="500.65" stroke="#1982c4" stroke-width="2" stroke-linecap="round" stroke-linejoin="round"/>
<line x1="114.119" y1="500.65" x2="88.35" y2="191.425" stroke="#1982c4" stroke-width="2" stroke-linecap="round" stroke-linejoin="round"/>
<line x1="88.35" y1="191.425" x2="320.269" y2="88.35" stroke="#1982c4" stroke-width="2" stroke-linecap="round" stroke-linejoin="round"/>
<line x1="320.269" y1="88.35" x2="500.65" y2="242.962" stroke="#1982c4" stroke-width="2" stroke-linecap="round" stroke-linejoin="round"/>
<line x1="500.65" y1="242.962" x2="423.344" y2="500.65" stroke="#1982c4" stroke-width="2" stroke-linecap="round" stroke-linejoin="round"/>
<line x1="423.344" y1="500.65" x2="88.35" y2="500.65" stroke="#1982c4" stroke-width="2" stroke-linecap="round" stroke-linejoin="round"/>
<line x1="88.35" y1="500.65" x2="88.35" y2="165.656" stroke="#1982c4" stroke-width="2" stroke-linecap="round" stroke-linejoin="round"/>
<line x1="88.35" y1="165.656" x2="346.037" y2="88.35" stroke="#1982c4" stroke-width="2" stroke-linecap="round" stroke-linejoin="round"/>
<line x1="346.037" y1="88.35" x2="500.65" y2="268.731" stroke="#1982c4" stroke-width="2" stroke-linecap="round" stroke-linejoin="round"/>
<line x1="500.65" y1="268.731" x2="397.575" y2="500.65" stroke="#1982c4" stroke-width="2" stroke-linecap="round" stroke-linejoin="round"/>
<line x1="397.575" y1="500.65" x2="88.35" y2="474.881" stroke="#1982c4" stroke-width="2" stroke-linecap="round" stroke-linejoin="round"/>
<line x1="88.35" y1="474.881" x2="88.35" y2="139.887" stroke="#1982c4" stroke-width="2" stroke-linecap="round" stroke-linejoin="round"/>
<line x1="88.35" y1="139.887" x2="371.806" y2="88.35" stroke="#1982c4" stroke-width="2" stroke-linecap="round" stroke-linejoin="round"/>
<line x1="371.806" y1="88.35" x2="500.65" y2="294.5" stroke="#1982c4" stroke-width="2" stroke-linecap="round" stroke-linejoin="round"/>
<line x1="500.65" y1="294.5" x2="371.806" y2="500.65" stroke="#1982c4" stroke-width="2" stroke-linecap="round" stroke-linejoin="round"/>
<line x1="371.806" y1="500.65" x2="88.35" y2="449.112" stroke="#1982c4" stroke-width="2" stroke-linecap="round" stroke-linejoin="round"/>
<line x1="88.35" y1="449.112" x2="88.35" y2="114.119" stroke="#1982c4" stroke-width="2" stroke-linecap="round" stroke-linejoin="round"/>
<line x1="88.35" y1="114.119" x2="397.575" y2="88.35" stroke="#1982c4" stroke-width="2" stroke-linecap="round" stroke-linejoin="round"/>
<line x1="397.575" y1="88.35" x2="500.65" y2="320.269" stroke="#1982c4" stroke-width="2" stroke-linecap="round" stroke-linejoin="round"/>
<line x1="500.65" y1="320.269" x2="346.038" y2="500.65" stroke="#1982c4" stroke-width="2" stroke-linecap="round" stroke-linejoin="round"/>
<line x1="346.038" y1="500.65" x2="88.35" y2="423.344" stroke="#1982c4" stroke-width="2" stroke-linecap="round" stroke-linejoin="round"/>
<line x1="88.35" y1="423.344" x2="88.35" y2="88.35" stroke="#1982c4" stroke-width="2" stroke-linecap="round" stroke-linejoin="round"/>
<line x1="88.35" y1="88.35" x2="423.344" y2="88.35" stroke="#1982c4" stroke-width="2" stroke-linecap="round" stroke-linejoin="round"/>
<line x1="423.344" y1="88.35" x2="500.65" y2="346.037" stroke="#1982c4" stroke-width="2" stroke-linecap="round" stroke-linejoin="round"/>
<line x1="500.65" y1="346.037" x2="320.269" y2="500.65" stroke="#1982c4" stroke-width="2" stroke-linecap="round" stroke-linejoin="round"/>
<line x1="320.269" y1="500.65" x2="88.35" y2="397.575" stroke="#1982c4" stroke-width="2" stroke-linecap="round" stroke-linejoin="round"/>
<line x1="88.35" y1="397.575" x2="114.119" y2="88.35" stroke="#1982c4" stroke-width="2" stroke-linecap="round" stroke-linejoin="round"/>
<line x1="114.119" y1="88.35" x2="449.112" y2="88.35" stroke="#1982c4" stroke-width="2" stroke-linecap="round" stroke-linejoin="round"/>
<line x1="449.112" y1="88.35" x2="500.65" y2="371.806" stroke="#1982c4" stroke-width="2" stroke-linecap="round" stroke-linejoin="round"/>
<line x1="500.65" y1="371.806" x2="294.5" y2="500.65" stroke="#1982c4" stroke-width="2" stroke-linecap="round" stroke-linejoin="round"/>
<line x1="294.5" y1="500.65" x2="88.35" y2="371.806" stroke="#1982c4" stroke-width="2" stroke-linecap="round" stroke-linejoin="round"/>
<line x1="88.35" y1="371.806" x2="139.888" y2="88.35" stroke="#1982c4" stroke-width="2" stroke-linecap="round" stroke-linejoin="round"/>
<line x1="139.888" y1="88.35" x2="474.881" y2="88.35" stroke="#1982c4" stroke-width="2" stroke-linecap="round" stroke-linejoin="round"/>
<line x1="474.881" y1="88.35" x2="500.65" y2="397.575" stroke="#1982c4" stroke-width="2" stroke-linecap="round" stroke-linejoin="round"/>
<line x1="500.65" y1="397.575" x2="268.731" y2="500.65" stroke="#1982c4" stroke-width="2" stroke-linecap="round" stroke-linejoin="round"/>
<line x1="268.731" y1="500.65" x2="88.35" y2="346.037" stroke="#1982c4" stroke-width="2" stroke-linecap="round" stroke-linejoin="round"/>
<line x1="88.35" y1="346.037" x2="165.656" y2="88.35" stroke="#1982c4" stroke-width="2" stroke-linecap="round" stroke-linejoin="round"/>
<line x1="165.656" y1="88.35" x2="500.65" y2="88.35" stroke="#1982c4" stroke-width="2" stroke-linecap="round" stroke-linejoin="round"/>
<line x1="500.65" y1="88.35" x2="500.65" y2="423.344" stroke="#1982c4" stroke-width="2" stroke-linecap="round" stroke-linejoin="round"/>
<line x1="500.65" y1="423.344" x2="242.963" y2="500.65" stroke="#1982c4" stroke-width="2" stroke-linecap="round" stroke-linejoin="round"/>
<line x1="242.963" y1="500.65" x2="88.35" y2="320.269" stroke="#1982c4" stroke-width="2" stroke-linecap="round" stroke-linejoin="round"/>
<line x1="88.35" y1="320.269" x2="191.425" y2="88.35" stroke="#1982c4" stroke-width="2" stroke-linecap="round" stroke-linejoin="round"/>
<line x1="191.425" y1="88.35" x2="500.65" y2="114.119" stroke="#1982c4" stroke-width="2" stroke-linecap="round" stroke-linejoin="round"/>
<line x1="500.65" y1="114.119" x2="500.65" y2="449.112" stroke="#1982c4" stroke-width="2" stroke-linecap="round" stroke-linejoin="round"/>
<line x1="500.65" y1="449.112" x2="217.194" y2="500.65" stroke="#1982c4" stroke-width="2" stroke-linecap="round" stroke-linejoin="round"/>
<line x1="217.194" y1="500.65" x2="88.35" y2="294.5" stroke="#1982c4" stroke-width="2" stroke-linecap="round" stroke-linejoin="round"/>
<line x1="88.35" y1="294.5" x2="217.194" y2="88.35" stroke="#1982c4" stroke-width="2" stroke-linecap="round" stroke-linejoin="round"/>
<line x1="217.194" y1="88.35" x2="500.65" y2="139.887" stroke="#1982c4" stroke-width="2" stroke-linecap="round" stroke-linejoin="round"/>
<line x1="500.65" y1="139.887" x2="500.65" y2="474.881" stroke="#1982c4" stroke-width="2" stroke-linecap="round" stroke-linejoin="round"/>
<line x1="500.65" y1="474.881" x2="191.425" y2="500.65" stroke="#1982c4" stroke-width="2" stroke-linecap="round" stroke-linejoin="round"/>
<line x1="191.425" y1="500.65" x2="88.35" y2="268.731" stroke="#1982c4" stroke-width="2" stroke-linecap="round" stroke-linejoin="round"/>
<line x1="88.35" y1="268.731" x2="242.963" y2="88.35" stroke="#1982c4" stroke-width="2" stroke-linecap="round" stroke-linejoin="round"/>
<line x1="242.963" y1="88.35" x2="500.65" y2="165.656" stroke="#1982c4" stroke-width="2" stroke-linecap="round" stroke-linejoin="round"/>
<line x1="500.65" y1="165.656" x2="500.65" y2="500.65" stroke="#1982c4" stroke-width="2" stroke-linecap="round" stroke-linejoin="round"/>
<line x1="500.65" y1="500.65" x2="165.656" y2="500.65" stroke="#1982c4" stroke-width="2" stroke-linecap="round" stroke-linejoin="round"/>
<line x1="165.656" y1="500.65" x2="88.35" y2="242.962" stroke="#1982c4" stroke-width="2" stroke-linecap="round" stroke-linejoin="round"/>
<line x1="88.35" y1="242.962" x2="268.731" y2="88.35" stroke="#1982c4" stroke-width="2" stroke-linecap="round" stroke-linejoin="round"/>
<line x1="268.731" y1="88.35" x2="500.65" y2="191.425" stroke="#1982c4" stroke-width="2" stroke-linecap="round" stroke-linejoin="round"/>
<line x1="500.65" y1="191.425" x2="474.881" y2="500.65" stroke="#1982c4" stroke-width="2" stroke-linecap="round" stroke-linejoin="round"/>
<line x1="474.881" y1="500.65" x2="139.888" y2="500.65" stroke="#1982c4" stroke-width="2" stroke-linecap="round" stroke-linejoin="round"/>
<line x1="139.888" y1="500.65" x2="88.35" y2="217.194" stroke="#1982c4" stroke-width="2" stroke-linecap="round" stroke-linejoin="round"/>
<line x1="88.35" y1="217.194" x2="294.5" y2="88.35" stroke="#1982c4" stroke-width="2" stroke-linecap="round" stroke-linejoin="round"/>
<line x1="294.5" y1="191.425" x2="358.922" y2="397.575" stroke="#ffca3a" stroke-width="2" stroke-linecap="round" stroke-linejoin="round"/>
<line x1="358.922" y1="397.575" x2="191.425" y2="217.194" stroke="#ffca3a" stroke-width="2" stroke-linecap="round" stroke-linejoin="round"/>
<line x1="191.425" y1="217.194" x2="397.575" y2="307.384" stroke="#ffca3a" stroke-width="2" stroke-linecap="round" stroke-linejoin="round"/>
<line x1="397.575" y1="307.384" x2="191.425" y2="346.037" stroke="#ffca3a" stroke-width="2" stroke-linecap="round" stroke-linejoin="round"/>
<line x1="191.425" y1="346.037" x2="384.691" y2="191.425" stroke="#ffca3a" stroke-width="2" stroke-linecap="round" stroke-linejoin="round"/>
<line x1="384.691" y1="191.425" x2="268.731" y2="397.575" stroke="#ffca3a" stroke-width="2" stroke-linecap="round" stroke-linejoin="round"/>
<line x1="268.731" y1="397.575" x2="255.847" y2="191.425" stroke="#ffca3a" stroke-width="2" stroke-linecap="round" stroke-linejoin="round"/>
<line x1="255.847" y1="191.425" x2="397.575" y2="397.575" stroke="#ffca3a" stroke-width="2" stroke-linecap="round" stroke-linejoin="round"/>
<line x1="397.575" y1="397.575" x2="191.425" y2="255.847" stroke="#ffca3a" stroke-width="2" stroke-linecap="round" stroke-linejoin="round"/>
<line x1="191.425" y1="255.847" x2="397.575" y2="268.731" stroke="#ffca3a" stroke-width="2" stroke-linecap="round" stroke-linejoin="round"/>
<line x1="397.575" y1="268.731" x2="191.425" y2="384.691" stroke="#ffca3a" stroke-width="2" stroke-linecap="round" stroke-linejoin="round"/>
<line x1="191.425" y1="384.691" x2="346.038" y2="191.425" stroke="#ffca3a" stroke-width="2" stroke-linecap="round" stroke-linejoin="round"/>
<line x1="346.038" y1="191.425" x2="307.384" y2="397.575" stroke="#ffca3a" stroke-width="2" stroke-linecap="round" stroke-linejoin="round"/>
<line x1="307.384" y1="397.575" x2="217.194" y2="191.425" stroke="#ffca3a" stroke-width="2" stroke-linecap="round" stroke-linejoin="round"/>
<line x1="217.194" y1="191.425" x2="397.575" y2="358.922" stroke="#ffca3a" stroke-width="2" stroke-linecap="round" stroke-linejoin="round"/>
<line x1="397.575" y1="358.922" x2="191.425" y2="294.5" stroke="#ffca3a" stroke-width="2" stroke-linecap="round" stroke-linejoin="round"/>
<line x1="191.425" y1="294.5" x2="397.575" y2="230.078" stroke="#ffca3a" stroke-width="2" stroke-linecap="round" stroke-linejoin="round"/>
<line x1="397.575" y1="230.078" x2="217.194" y2="397.575" stroke="#ffca3a" stroke-width="2" stroke-linecap="round" stroke-linejoin="round"/>
<line x1="217.194" y1="397.575" x2="307.384" y2="191.425" stroke="#ffca3a" stroke-width="2" stroke-linecap="round" stroke-linejoin="round"/>
<line x1="307.384" y1="191.425" x2="346.037" y2="397.575" stroke="#ffca3a" stroke-width="2" stroke-linecap="round" stroke-linejoin="round"/>
<line x1="346.037" y1="397.575" x2="191.425" y2="204.309" stroke="#ffca3a" stroke-width="2" stroke-linecap="round" stroke-linejoin="round"/>
<line x1="191.425" y1="204.309" x2="397.575" y2="320.269" stroke="#ffca3a" stroke-width="2" stroke-linecap="round" stroke-linejoin="round"/>
<line x1="397.575" y1="320.269" x2="191.425" y2="333.153" stroke="#ffca3a" stroke-width="2" stroke-linecap="round" stroke-linejoin="round"/>
<line x1="191.425" y1="333.153" x2="397.575" y2="191.425" stroke="#ffca3a" stroke-width="2" stroke-linecap="round" stroke-linejoin="round"/>
<line x1="397.575" y1="191.425" x2="255.847" y2="397.575" stroke="#ffca3a" stroke-width="2" stroke-linecap="round" stroke-linejoin="round"/>
<line x1="255.847" y1="397.575" x2="268.731" y2="191.425" stroke="#ffca3a" stroke-width="2" stroke-linecap="round" stroke-linejoin="round"/>
<line x1="268.731" y1="191.425" x2="384.691" y2="397.575" stroke="#ffca3a" stroke-width="2" stroke-linecap="round" stroke-linejoin="round"/>
<line x1="384.691" y1="397.575" x2="191.425" y2="242.962" stroke="#ffca3a" stroke-width="2" stroke-linecap="round" stroke-linejoin="round"/>
<line x1="191.425" y1="242.962" x2="397.575" y2="281.616" stroke="#ffca3a" stroke-width="2" stroke-linecap="round" stroke-linejoin="round"/>
<line x1="397.575" y1="281.616" x2="191.425" y2="371.806" stroke="#ffca3a" stroke-width="2" stroke-linecap="round" stroke-linejoin="round"/>
<line x1="191.425" y1="371.806" x2="358.922" y2="191.425" stroke="#ffca3a" stroke-width="2" stroke-linecap="round" stroke-linejoin="round"/>
<line x1="358.922" y1="191.425" x2="294.5" y2="397.575" stroke="#ffca3a" stroke-width="2" stroke-linecap="round" stroke-linejoin="round"/>
<line x1="294.5" y1="397.575" x2="230.078" y2="191.425" stroke="#ffca3a" stroke-width="2" stroke-linecap="round" stroke-linejoin="round"/>
<line x1="230.078" y1="191.425" x2="397.575" y2="371.806" stroke="#ffca3a" stroke-width="2" stroke-linecap="round" stroke-linejoin="round"/>
<line x1="397.575" y1="371.806" x2="191.425" y2="281.616" stroke="#ffca3a" stroke-width="2" stroke-linecap="round" stroke-linejoin="round"/>
<line x1="191.425" y1="281.616" x2="397.575" y2="242.963" stroke="#ffca3a" stroke-width="2" stroke-linecap="round" stroke-linejoin="round"/>
<line x1="397.575" y1="242.963" x2="204.309" y2="397.575" stroke="#ffca3a" stroke-width="2" stroke-linecap="round" stroke-linejoin="round"/>
<line x1="204.309" y1="397.575" x2="320.269" y2="191.425" stroke="#ffca3a" stroke-width="2" stroke-linecap="round" stroke-linejoin="round"/>
<line x1="320.269" y1="191.425" x2="333.153" y2="397.575" stroke="#ffca3a" stroke-width="2" stroke-linecap="round" stroke-linejoin="round"/>
<line x1="333.153" y1="397.575" x2="191.425" y2="191.425" stroke="#ffca3a" stroke-width="2" stroke-linecap="round" stroke-linejoin="round"/>
<line x1="191.425" y1="191.425" x2="397.575" y2="333.153" stroke="#ffca3a" stroke-width="2" stroke-linecap="round" stroke-linejoin="round"/>
<line x1="397.575" y1="333.153" x2="191.425" y2="320.269" stroke="#ffca3a" stroke-width="2" stroke-linecap="round" stroke-linejoin="round"/>
<line x1="191.425" y1="320.269" x2="397.575" y2="204.309" stroke="#ffca3a" stroke-width="2" stroke-linecap="round" stroke-linejoin="round"/>
<line x1="397.575" y1="204.309" x2="242.962" y2="397.575" stroke="#ffca3a" stroke-width="2" stroke-linecap="round" stroke-linejoin="round"/>
<line x1="242.962" y1="397.575" x2="281.616" y2="191.425" stroke="#ffca3a" stroke-width="2" stroke-linecap="round" stroke-linejoin="round"/>
<line x1="281.616" y1="191.425" x2="371.806" y2="397.575" stroke="#ffca3a" stroke-width="2" stroke-linecap="round" stroke-linejoin="round"/>
<line x1="371.806" y1="397.575" x2="191.425" y2="230.078" stroke="#ffca3a" stroke-width="2" stroke-linecap="round" stroke-linejoin="round"/>
<line x1="191.425" y1="230.078" x2="397.575" y2="294.5" stroke="#ffca3a" stroke-width="2" stroke-linecap="round" stroke-linejoin="round"/>
<line x1="397.575" y1="294.5" x2="191.425" y2="358.922" stroke="#ffca3a" stroke-width="2" stroke-linecap="round" stroke-linejoin="round"/>
<line x1="191.425" y1="358.922" x2="371.806" y2="191.425" stroke="#ffca3a" stroke-width="2" stroke-linecap="round" stroke-linejoin="round"/>
<line x1="371.806" y1="191.425" x2="281.616" y2="397.575" stroke="#ffca3a" stroke-width="2" stroke-linecap="round" stroke-linejoin="round"/>
<line x1="281.616" y1="397.575" x2="242.962" y2="191.425" stroke="#ffca3a" stroke-width="2" stroke-linecap="round" stroke-linejoin="round"/>
<line x1="242.962" y1="191.425" x2="397.575" y2="384.691" stroke="#ffca3a" stroke-width="2" stroke-linecap="round" stroke-linejoin="round"/>
<line x1="397.575" y1="384.691" x2="191.425" y2="268.731" stroke="#ffca3a" stroke-width="2" stroke-linecap="round" stroke-linejoin="round"/>
<line x1="191.425" y1="268.731" x2="397.575" y2="255.847" stroke="#ffca3a" stroke-width="2" stroke-linecap="round" stroke-linejoin="round"/>
<line x1="397.575" y1="255.847" x2="191.425" y2="397.575" stroke="#ffca3a" stroke-width="2" stroke-linecap="round" stroke-linejoin="round"/>
<line x1="191.425" y1="397.575" x2="333.153" y2="191.425" stroke="#ffca3a" stroke-width="2" stroke-linecap="round" stroke-linejoin="round"/>
<line x1="333.153" y1="191.425" x2="320.269" y2="397.575" stroke="#ffca3a" stroke-width="2" stroke-linecap="round" stroke-linejoin="round"/>
<line x1="320.269" y1="397.575" x2="204.309" y2="191.425" stroke="#ffca3a" stroke-width="2" stroke-linecap="round" stroke-linejoin="round"/>
<line x1="204.309" y1="191.425" x2="397.575" y2="346.038" stroke="#ffca3a" stroke-width="2" stroke-linecap="round" stroke-linejoin="round"/>
<line x1="397.575" y1="346.038" x2="191.425" y2="307.384" stroke="#ffca3a" stroke-width="2" stroke-linecap="round" stroke-linejoin="round"/>
<line x1="191.425" y1="307.384" x2="397.575" y2="217.194" stroke="#ffca3a" stroke-width="2" stroke-linecap="round" stroke-linejoin="round"/>
<line x1="397.575" y1="217.194" x2="230.078" y2="397.575" stroke="#ffca3a" stroke-width="2" stroke-linecap="round" stroke-linejoin="round"/>
<line x1="230.078" y1="397.575" x2="294.5" y2="191.425" stroke="#ffca3a" stroke-width="2" stroke-linecap="round" stroke-linejoin="round"/>
<circle cx="294.5" cy="88.35" r="3" fill="#333"/>
<circle cx="320.269" cy="88.35" r="3" fill="#333"/>
<circle cx="346.037" cy="88.35" r="3" fill="#333"/>
<circle cx="371.806" cy="88.35" r="3" fill="#333"/>
<circle cx="397.575" cy="88.35" r="3" fill="#333"/>
<circle cx="423.344" cy="88.35" r="3" fill="#333"/>
<circle cx="449.112" cy="88.35" r="3" fill="#333"/>
<circle cx="474.881" cy="88.35" r="3" fill="#333"/>
<circle cx="500.65" cy="88.35" r="3" fill="#333"/>
<circle cx="500.65" cy="114.119" r="3" fill="#333"/>
<circle cx="500.65" cy="139.887" r="3" fill="#333"/>
<circle cx="500.65" cy="165.656" r="3" fill="#333"/>
<circle cx="500.65" cy="191.425" r="3" fill="#333"/>
<circle cx="500.65" cy="217.194" r="3" fill="#333"/>
<circle cx="500.65" cy="242.962" r="3" fill="#333"/>
<circle cx="500.65" cy="268.731" r="3" fill="#333"/>
<circle cx="500.65" cy="294.5" r="3" fill="#333"/>
<circle cx="500.65" cy="320.269" r="3" fill="#333"/>
<circle cx="500.65" cy="346.037" r="3" fill="#333"/>
<circle cx="500.65" cy="371.806" r="3" fill="#333"/>
<circle cx="500.65" cy="397.575" r="3" fill="#333"/>
<circle cx="500.65" cy="423.344" r="3" fill="#333"/>
<circle cx="500.65" cy="449.112" r="3" fill="#333"/>
<circle cx="500.65" cy="474.881" r="3" fill="#333"/>
<circle cx="500.65" cy="500.65" r="3" fill="#333"/>
<circle cx="474.881" cy="500.65" r="3" fill="#333"/>
<circle cx="449.113" cy="500.65" r="3" fill="#333"/>
<circle cx="423.344" cy="500.65" r="3" fill="#333"/>
<circle cx="397.575" cy="500.65" r="3" fill="#333"/>
<circle cx="371.806" cy="500.65" r="3" fill="#333"/>
<circle cx="346.038" cy="500.65" r="3" fill="#333"/>
<circle cx="320.269" cy="500.65" r="3" fill="#333"/>
<circle cx="294.5" cy="500.65" r="3" fill="#333"/>
<circle cx="268.731" cy="500.65" r="3" fill="#333"/>
<circle cx="242.963" cy="500.65" r="3" fill="#333"/>
<circle cx="217.194" cy="500.65" r="3" fill="#333"/>
<circle cx="191.425" cy="500.65" r="3" fill="#333"/>
<circle cx="165.656" cy="500.65" r="3" fill="#333"/>
<circle cx="139.888" cy="500.65" r="3" fill="#333"/>
<circle cx="114.119" cy="500.65" r="3" fill="#333"/>
<circle cx="88.35" cy="500.65" r="3" fill="#333"/>
<circle cx="88.35" cy="474.881" r="3" fill="#333"/>
<circle cx="88.35" cy="449.112" r="3" fill="#333"/>
<circle cx="88.35" cy="423.344" r="3" fill="#333"/>
<circle cx="88.35" cy="397.575" r="3" fill="#333"/>
<circle cx="88.35" cy="371.806" r="3" fill="#333"/>
<circle cx="88.35" cy="346.037" r="3" fill="#333"/>
<circle cx="88.35" cy="320.269" r="3" fill="#333"/>
<circle cx="88.35" cy="294.5" r="3" fill="#333"/>
<circle cx="88.35" cy="268.731" r="3" fill="#333"/>
<circle cx="88.35" cy="242.962" r="3" fill="#333"/>
<circle cx="88.35" cy="217.194" r="3" fill="#333"/>
<circle cx="88.35" cy="191.425" r="3" fill="#333"/>
<circle cx="88.35" cy="165.656" r="3" fill="#333"/>
<circle cx="88.35" cy="139.887" r="3" fill="#333"/>
<circle cx="88.35" cy="114.119" r="3" fill="#333"/>
<circle cx="88.35" cy="88.35" r="3" fill="#333"/>
<circle cx="114.119" cy="88.35" r="3" fill="#333"/>
<circle cx="139.888" cy="88.35" r="3" fill="#333"/>
<circle cx="165.656" cy="88.35" r="3" fill="#333"/>
<circle cx="191.425" cy="88.35" r="3" fill="#333"/>
<circle cx="217.194" cy="88.35" r="3" fill="#333"/>
<circle cx="242.963" cy="88.35" r="3" fill="#333"/>
<circle cx="268.731" cy="88.35" r="3" fill="#333"/>
<circle cx="294.5" cy="191.425" r="3" fill="#333"/>
<circle cx="307.384" cy="191.425" r="3" fill="#333"/>
<circle cx="320.269" cy="191.425" r="3" fill="#333"/>
<circle cx="333.153" cy="191.425" r="3" fill="#333"/>
<circle cx="346.038" cy="191.425" r="3" fill="#333"/>
<circle cx="358.922" cy="191.425" r="3" fill="#333"/>
<circle cx="371.806" cy="191.425" r="3" fill="#333"/>
<circle cx="384.691" cy="191.425" r="3" fill="#333"/>
<circle cx="397.575" cy="191.425" r="3" fill="#333"/>
<circle cx="397.575" cy="204.309" r="3" fill="#333"/>
<circle cx="397.575" cy="217.194" r="3" fill="#333"/>
<circle cx="397.575" cy="230.078" r="3" fill="#333"/>
<circle cx="397.575" cy="242.963" r="3" fill="#333"/>
<circle cx="397.575" cy="255.847" r="3" fill="#333"/>
<circle cx="397.575" cy="268.731" r="3" fill="#333"/>
<circle cx="397.575" cy="281.616" r="3" fill="#333"/>
<circle cx="397.575" cy="294.5" r="3" fill="#333"/>
<circle cx="397.575" cy="307.384" r="3" fill="#333"/>
<circle cx="397.575" cy="320.269" r="3" fill="#333"/>
<circle cx="397.575" cy="333.153" r="3" fill="#333"/>
<circle cx="397.575" cy="346.038" r="3" fill="#333"/>
<circle cx="397.575" cy="358.922" r="3" fill="#333"/>
<circle cx="397.575" cy="371.806" r="3" fill="#333"/>
<circle cx="397.575" cy="384.691" r="3" fill="#333"/>
<circle cx="397.575" cy="397.575" r="3" fill="#333"/>
<circle cx="384.691" cy="397.575" r="3" fill="#333"/>
<circle cx="371.806" cy="397.575" r="3" fill="#333"/>
<circle cx="358.922" cy="397.575" r="3" fill="#333"/>
<circle cx="346.037" cy="397.575" r="3" fill="#333"/>
<circle cx="333.153" cy="397.575" r="3" fill="#333"/>
<circle cx="320.269" cy="397.575" r="3" fill="#333"/>
<circle cx="307.384" cy="397.575" r="3" fill="#333"/>
<circle cx="294.5" cy="397.575" r="3" fill="#333"/>
<circle cx="281.616" cy="397.575" r="3" fill="#333"/>
<circle cx="268.731" cy="397.575" r="3" fill="#333"/>
<circle cx="255.847" cy="397.575" r="3" fill="#333"/>
<circle cx="242.962" cy="397.575" r="3" fill="#333"/>
<circle cx="230.078" cy="397.575" r="3" fill="#333"/>
<circle cx="217.194" cy="397.575" r="3" fill="#333"/>
<circle cx="204.309" cy="397.575" r="3" fill="#333"/>
<circle cx="191.425" cy="397.575" r="3" fill="#333"/>
<circle cx="191.425" cy="384.691" r="3" fill="#333"/>
<circle cx="191.425" cy="371.806" r="3" fill="#333"/>
<circle cx="191.425" cy="358.922" r="3" fill="#333"/>
<circle cx="191.425" cy="346.037" r="3" fill="#333"/>
<circle cx="191.425" cy="333.153" r="3" fill="#333"/>
<circle cx="191.425" cy="320.269" r="3" fill="#333"/>
<circle cx="191.425" cy="307.384" r="3" fill="#333"/>
<circle cx="191.425" cy="294.5" r="3" fill="#333"/>
<circle cx="191.425" cy="281.616" r="3" fill="#333"/>
<circle cx="191.425" cy="268.731" r="3" fill="#333"/>
<circle cx="191.425" cy="255.847" r="3" fill="#333"/>
<circle cx="191.425" cy="242.962" r="3" fill="#333"/>
<circle cx="191.425" cy="230.078" r="3" fill="#333"/>
<circle cx="191.425" cy="217.194" r="3" fill="#333"/>
<circle cx="191.425" cy="204.309" r="3" fill="#333"/>
<circle cx="191.425" cy="191.425" r="3" fill="#333"/>
<circle cx="204.309" cy="191.425" r="3" fill="#333"/>
<circle cx="217.194" cy="191.425" r="3" fill="#333"/>
<circle cx="230.078" cy="191.425" r="3" fill="#333"/>
<circle cx="242.962" cy="191.425" r="3" fill="#333"/>
<circle cx="255.847" cy="191.425" r="3" fill="#333"/>
<circle cx="268.731" cy="191.425" r="3" fill="#333"/>
<circle cx="281.616" cy="191.425" r="3" fill="#333"/>
<text x="294.5" y="77.68" fill="#555" font-size="8.5" font-family="Nunito, sans-serif" text-anchor="middle" dominant-baseline="middle">1</text>
<text x="320.269" y="77.68" fill="#555" font-size="8.5" font-family="Nunito, sans-serif" text-anchor="middle" dominant-baseline="middle">2</text>
<text x="346.037" y="77.68" fill="#555" font-size="8.5" font-family="Nunito, sans-serif" text-anchor="middle" dominant-baseline="middle">3</text>
<text x="371.806" y="77.68" fill="#555" font-size="8.5" font-family="Nunito, sans-serif" text-anchor="middle" dominant-baseline="middle">4</text>
<text x="397.575" y="77.68" fill="#555" font-size="8.5" font-family="Nunito, sans-serif" text-anchor="middle" dominant-baseline="middle">5</text>
<text x="423.344" y="77.68" fill="#555" font-size="8.5" font-family="Nunito, sans-serif" text-anchor="middle" dominant-baseline="middle">6</text>
<text x="449.112" y="77.68" fill="#555" font-size="8.5" font-family="Nunito, sans-serif" text-anchor="middle" dominant-baseline="middle">7</text>
<text x="474.881" y="77.68" fill="#555" font-size="8.5" font-family="Nunito, sans-serif" text-anchor="middle" dominant-baseline="middle">8</text>
<text x="508.195" y="80.805" fill="#555" font-size="8.5" font-family="Nunito, sans-serif" text-anchor="middle" dominant-baseline="middle">9</text>
<text x="509.79" y="114.119" fill="#555" font-size="8.5" font-family="Nunito, sans-serif" text-anchor="middle" dominant-baseline="middle">10</text>
<text x="509.79" y="139.887" fill="#555" font-size="8.5" font-family="Nunito, sans-serif" text-anchor="middle" dominant-baseline="middle">11</text>
<text x="509.79" y="165.656" fill="#555" font-size="8.5" font-family="Nunito, sans-serif" text-anchor="middle" dominant-baseline="middle">12</text>
<text x="509.79" y="191.425" fill="#555" font-size="8.5" font-family="Nunito, sans-serif" text-anchor="middle" dominant-baseline="middle">13</text>
<text x="509.79" y="217.194" fill="#555" font-size="8.5" font-family="Nunito, sans-serif" text-anchor="middle" dominant-baseline="middle">14</text>
<text x="509.79" y="242.962" fill="#555" font-size="8.5" font-family="Nunito, sans-serif" text-anchor="middle" dominant-baseline="middle">15</text>
<text x="509.79" y="268.731" fill="#555" font-size="8.5" font-family="Nunito, sans-serif" text-anchor="middle" dominant-baseline="middle">16</text>
<text x="509.79" y="294.5" fill="#555" font-size="8.5" font-family="Nunito, sans-serif" text-anchor="middle" dominant-baseline="middle">17</text>
<text x="509.79" y="320.269" fill="#555" font-size="8.5" font-family="Nunito, sans-serif" text-anchor="middle" dominant-baseline="middle">18</text>
<text x="509.79" y="346.037" fill="#555" font-size="8.5" font-family="Nunito, sans-serif" text-anchor="middle" dominant-baseline="middle">19</text>
<text x="509.79" y="371.806" fill="#555" font-size="8.5" font-family="Nunito, sans-serif" text-anchor="middle" dominant-baseline="middle">20</text>
<text x="509.79" y="397.575" fill="#555" font-size="8.5" font-family="Nunito, sans-serif" text-anchor="middle" dominant-baseline="middle">21</text>
<text x="509.79" y="423.344" fill="#555" font-size="8.5" font-family="Nunito, sans-serif" text-anchor="middle" dominant-baseline="middle">22</text>
<text x="509.79" y="449.112" fill="#555" font-size="8.5" font-family="Nunito, sans-serif" text-anchor="middle" dominant-baseline="middle">23</text>
<text x="509.79" y="474.881" fill="#555" font-size="8.5" font-family="Nunito, sans-serif" text-anchor="middle" dominant-baseline="middle">24</text>
<text x="507.113" y="507.113" fill="#555" font-size="8.5" font-family="Nunito, sans-serif" text-anchor="middle" dominant-baseline="middle">25</text>
<text x="474.881" y="509.79" fill="#555" font-size="8.5" font-family="Nunito, sans-serif" text-anchor="middle" dominant-baseline="middle">26</text>
<text x="449.113" y="509.79" fill="#555" font-size="8.5" font-family="Nunito, sans-serif" text-anchor="middle" dominant-baseline="middle">27</text>
<text x="423.344" y="509.79" fill="#555" font-size="8.5" font-family="Nunito, sans-serif" text-anchor="middle" dominant-baseline="middle">28</text>
<text x="397.575" y="509.79" fill="#555" font-size="8.5" font-family="Nunito, sans-serif" text-anchor="middle" dominant-baseline="middle">29</text>
<text x="371.806" y="509.79" fill="#555" font-size="8.5" font-family="Nunito, sans-serif" text-anchor="middle" dominant-baseline="middle">30</text>
<text x="346.038" y="509.79" fill="#555" font-size="8.5" font-family="Nunito, sans-serif" text-anchor="middle" dominant-baseline="middle">31</text>
<text x="320.269" y="509.79" fill="#555" font-size="8.5" font-family="Nunito, sans-serif" text-anchor="middle" dominant-baseline="middle">32</text>
<text x="294.5" y="509.79" fill="#555" font-size="8.5" font-family="Nunito, sans-serif" text-anchor="middle" dominant-baseline="middle">33</text>
<text x="268.731" y="509.79" fill="#555" font-size="8.5" font-family="Nunito, sans-serif" text-anchor="middle" dominant-baseline="middle">34</text>
<text x="242.963" y="509.79" fill="#555" font-size="8.5" font-family="Nunito, sans-serif" text-anchor="middle" dominant-baseline="middle">35</text>
<text x="217.194" y="509.79" fill="#555" font-size="8.5" font-family="Nunito, sans-serif" text-anchor="middle" dominant-baseline="middle">36</text>
<text x="191.425" y="509.79" fill="#555" font-size="8.5" font-family="Nunito, sans-serif" text-anchor="middle" dominant-baseline="middle">37</text>
<text x="165.656" y="509.79" fill="#555" font-size="8.5" font-family="Nunito, sans-serif" text-anchor="middle" dominant-baseline="middle">38</text>
<text x="139.888" y="509.79" fill="#555" font-size="8.5" font-family="Nunito, sans-serif" text-anchor="middle" dominant-baseline="middle">39</text>
<text x="114.119" y="509.79" fill="#555" font-size="8.5" font-family="Nunito, sans-serif" text-anchor="middle" dominant-baseline="middle">40</text>
<text x="81.887" y="507.113" fill="#555" font-size="8.5" font-family="Nunito, sans-serif" text-anchor="middle" dominant-baseline="middle">41</text>
<text x="79.21" y="474.881" fill="#555" font-size="8.5" font-family="Nunito, sans-serif" text-anchor="middle" dominant-baseline="middle">42</text>
<text x="79.21" y="449.112" fill="#555" font-size="8.5" font-family="Nunito, sans-serif" text-anchor="middle" dominant-baseline="middle">43</text>
<text x="79.21" y="423.344" fill="#555" font-size="8.5" font-family="Nunito, sans-serif" text-anchor="middle" dominant-baseline="middle">44</text>
<text x="79.21" y="397.575" fill="#555" font-size="8.5" font-family="Nunito, sans-serif" text-anchor="middle" dominant-baseline="middle">45</text>
<text x="79.21" y="371.806" fill="#555" font-size="8.5" font-family="Nunito, sans-serif" text-anchor="middle" dominant-baseline="middle">46</text>
<text x="79.21" y="346.037" fill="#555" font-size="8.5" font-family="Nunito, sans-serif" text-anchor="middle" dominant-baseline="middle">47</text>
<text x="79.21" y="320.269" fill="#555" font-size="8.5" font-family="Nunito, sans-serif" text-anchor="middle" dominant-baseline="middle">48</text>
<text x="79.21" y="294.5" fill="#555" font-size="8.5" font-family="Nunito, sans-serif" text-anchor="middle" dominant-baseline="middle">49</text>
<text x="79.21" y="268.731" fill="#555" font-size="8.5" font-family="Nunito, sans-serif" text-anchor="middle" dominant-baseline="middle">50</text>
<text x="79.21" y="242.962" fill="#555" font-size="8.5" font-family="Nunito, sans-serif" text-anchor="middle" dominant-baseline="middle">51</text>
<text x="79.21" y="217.194" fill="#555" font-size="8.5" font-family="Nunito, sans-serif" text-anchor="middle" dominant-baseline="middle">52</text>
<text x="79.21" y="191.425" fill="#555" font-size="8.5" font-family="Nunito, sans-serif" text-anchor="middle" dominant-baseline="middle">53</text>
<text x="79.21" y="165.656" fill="#555" font-size="8.5" font-family="Nunito, sans-serif" text-anchor="middle" dominant-baseline="middle">54</text>
<text x="79.21" y="139.887" fill="#555" font-size="8.5" font-family="Nunito, sans-serif" text-anchor="middle" dominant-baseline="middle">55</text>
<text x="79.21" y="114.119" fill="#555" font-size="8.5" font-family="Nunito, sans-serif" text-anchor="middle" dominant-baseline="middle">56</text>
<text x="81.887" y="81.887" fill="#555" font-size="8.5" font-family="Nunito, sans-serif" text-anchor="middle" dominant-baseline="middle">57</text>
<text x="114.119" y="79.21" fill="#555" font-size="8.5" font-family="Nunito, sans-serif" text-anchor="middle" dominant-baseline="middle">58</text>
<text x="139.888" y="79.21" fill="#555" font-size="8.5" font-family="Nunito, sans-serif" text-anchor="middle" dominant-baseline="middle">59</text>
<text x="165.656" y="79.21" fill="#555" font-size="8.5" font-family="Nunito, sans-serif" text-anchor="middle" dominant-baseline="middle">60</text>
<text x="191.425" y="79.21" fill="#555" font-size="8.5" font-family="Nunito, sans-serif" text-anchor="middle" dominant-baseline="middle">61</text>
<text x="217.194" y="79.21" fill="#555" font-size="8.5" font-family="Nunito, sans-serif" text-anchor="middle" dominant-baseline="middle">62</text>
<text x="242.963" y="79.21" fill="#555" font-size="8.5" font-family="Nunito, sans-serif" text-anchor="middle" dominant-baseline="middle">63</text>
<text x="268.731" y="79.21" fill="#555" font-size="8.5" font-family="Nunito, sans-serif" text-anchor="middle" dominant-baseline="middle">64</text>
<text x="294.5" y="180.517" fill="#555" font-size="7.65" font-family="Nunito, sans-serif" text-anchor="middle" dominant-baseline="middle">1</text>
<text x="307.384" y="180.517" fill="#555" font-size="7.65" font-family="Nunito, sans-serif" text-anchor="middle" dominant-baseline="middle">2</text>
<text x="320.269" y="180.517" fill="#555" font-size="7.65" font-family="Nunito, sans-serif" text-anchor="middle" dominant-baseline="middle">3</text>
<text x="333.153" y="180.517" fill="#555" font-size="7.65" font-family="Nunito, sans-serif" text-anchor="middle" dominant-baseline="middle">4</text>
<text x="346.038" y="180.517" fill="#555" font-size="7.65" font-family="Nunito, sans-serif" text-anchor="middle" dominant-baseline="middle">5</text>
<text x="358.922" y="180.517" fill="#555" font-size="7.65" font-family="Nunito, sans-serif" text-anchor="middle" dominant-baseline="middle">6</text>
<text x="371.806" y="180.517" fill="#555" font-size="7.65" font-family="Nunito, sans-serif" text-anchor="middle" dominant-baseline="middle">7</text>
<text x="384.691" y="180.517" fill="#555" font-size="7.65" font-family="Nunito, sans-serif" text-anchor="middle" dominant-baseline="middle">8</text>
<text x="405.288" y="183.712" fill="#555" font-size="7.65" font-family="Nunito, sans-serif" text-anchor="middle" dominant-baseline="middle">9</text>
<text x="407.106" y="204.309" fill="#555" font-size="7.65" font-family="Nunito, sans-serif" text-anchor="middle" dominant-baseline="middle">10</text>
<text x="407.106" y="217.194" fill="#555" font-size="7.65" font-family="Nunito, sans-serif" text-anchor="middle" dominant-baseline="middle">11</text>
<text x="407.106" y="230.078" fill="#555" font-size="7.65" font-family="Nunito, sans-serif" text-anchor="middle" dominant-baseline="middle">12</text>
<text x="407.106" y="242.963" fill="#555" font-size="7.65" font-family="Nunito, sans-serif" text-anchor="middle" dominant-baseline="middle">13</text>
<text x="407.106" y="255.847" fill="#555" font-size="7.65" font-family="Nunito, sans-serif" text-anchor="middle" dominant-baseline="middle">14</text>
<text x="407.106" y="268.731" fill="#555" font-size="7.65" font-family="Nunito, sans-serif" text-anchor="middle" dominant-baseline="middle">15</text>
<text x="407.106" y="281.616" fill="#555" font-size="7.65" font-family="Nunito, sans-serif" text-anchor="middle" dominant-baseline="middle">16</text>
<text x="407.106" y="294.5" fill="#555" font-size="7.65" font-family="Nunito, sans-serif" text-anchor="middle" dominant-baseline="middle">17</text>
<text x="407.106" y="307.384" fill="#555" font-size="7.65" font-family="Nunito, sans-serif" text-anchor="middle" dominant-baseline="middle">18</text>
<text x="407.106" y="320.269" fill="#555" font-size="7.65" font-family="Nunito, sans-serif" text-anchor="middle" dominant-baseline="middle">19</text>
<text x="407.106" y="333.153" fill="#555" font-size="7.65" font-family="Nunito, sans-serif" text-anchor="middle" dominant-baseline="middle">20</text>
<text x="407.106" y="346.038" fill="#555" font-size="7.65" font-family="Nunito, sans-serif" text-anchor="middle" dominant-baseline="middle">21</text>
<text x="407.106" y="358.922" fill="#555" font-size="7.65" font-family="Nunito, sans-serif" text-anchor="middle" dominant-baseline="middle">22</text>
<text x="407.106" y="371.806" fill="#555" font-size="7.65" font-family="Nunito, sans-serif" text-anchor="middle" dominant-baseline="middle">23</text>
<text x="407.106" y="384.691" fill="#555" font-size="7.65" font-family="Nunito, sans-serif" text-anchor="middle" dominant-baseline="middle">24</text>
<text x="404.314" y="404.314" fill="#555" font-size="7.65" font-family="Nunito, sans-serif" text-anchor="middle" dominant-baseline="middle">25</text>
<text x="384.691" y="407.106" fill="#555" font-size="7.65" font-family="Nunito, sans-serif" text-anchor="middle" dominant-baseline="middle">26</text>
<text x="371.806" y="407.106" fill="#555" font-size="7.65" font-family="Nunito, sans-serif" text-anchor="middle" dominant-baseline="middle">27</text>
<text x="358.922" y="407.106" fill="#555" font-size="7.65" font-family="Nunito, sans-serif" text-anchor="middle" dominant-baseline="middle">28</text>
<text x="346.037" y="407.106" fill="#555" font-size="7.65" font-family="Nunito, sans-serif" text-anchor="middle" dominant-baseline="middle">29</text>
<text x="333.153" y="407.106" fill="#555" font-size="7.65" font-family="Nunito, sans-serif" text-anchor="middle" dominant-baseline="middle">30</text>
<text x="320.269" y="407.106" fill="#555" font-size="7.65" font-family="Nunito, sans-serif" text-anchor="middle" dominant-baseline="middle">31</text>
<text x="307.384" y="407.106" fill="#555" font-size="7.65" font-family="Nunito, sans-serif" text-anchor="middle" dominant-baseline="middle">32</text>
<text x="294.5" y="407.106" fill="#555" font-size="7.65" font-family="Nunito, sans-serif" text-anchor="middle" dominant-baseline="middle">33</text>
<text x="281.616" y="407.106" fill="#555" font-size="7.65" font-family="Nunito, sans-serif" text-anchor="middle" dominant-baseline="middle">34</text>
<text x="268.731" y="407.106" fill="#555" font-size="7.65" font-family="Nunito, sans-serif" text-anchor="middle" dominant-baseline="middle">35</text>
<text x="255.847" y="407.106" fill="#555" font-size="7.65" font-family="Nunito, sans-serif" text-anchor="middle" dominant-baseline="middle">36</text>
<text x="242.962" y="407.106" fill="#555" font-size="7.65" font-family="Nunito, sans-serif" text-anchor="middle" dominant-baseline="middle">37</text>
<text x="230.078" y="407.106" fill="#555" font-size="7.65" font-family="Nunito, sans-serif" text-anchor="middle" dominant-baseline="middle">38</text>
<text x="217.194" y="407.106" fill="#555" font-size="7.65" font-family="Nunito, sans-serif" text-anchor="middle" dominant-baseline="middle">39</text>
<text x="204.309" y="407.106" fill="#555" font-size="7.65" font-family="Nunito, sans-serif" text-anchor="middle" dominant-baseline="middle">40</text>
<text x="184.686" y="404.314" fill="#555" font-size="7.65" font-family="Nunito, sans-serif" text-anchor="middle" dominant-baseline="middle">41</text>
<text x="181.894" y="384.691" fill="#555" font-size="7.65" font-family="Nunito, sans-serif" text-anchor="middle" dominant-baseline="middle">42</text>
<text x="181.894" y="371.806" fill="#555" font-size="7.65" font-family="Nunito, sans-serif" text-anchor="middle" dominant-baseline="middle">43</text>
<text x="181.894" y="358.922" fill="#555" font-size="7.65" font-family="Nunito, sans-serif" text-anchor="middle" dominant-baseline="middle">44</text>
<text x="181.894" y="346.037" fill="#555" font-size="7.65" font-family="Nunito, sans-serif" text-anchor="middle" dominant-baseline="middle">45</text>
<text x="181.894" y="333.153" fill="#555" font-size="7.65" font-family="Nunito, sans-serif" text-anchor="middle" dominant-baseline="middle">46</text>
<text x="181.894" y="320.269" fill="#555" font-size="7.65" font-family="Nunito, sans-serif" text-anchor="middle" dominant-baseline="middle">47</text>
<text x="181.894" y="307.384" fill="#555" font-size="7.65" font-family="Nunito, sans-serif" text-anchor="middle" dominant-baseline="middle">48</text>
<text x="181.894" y="294.5" fill="#555" font-size="7.65" font-family="Nunito, sans-serif" text-anchor="middle" dominant-baseline="middle">49</text>
<text x="181.894" y="281.616" fill="#555" font-size="7.65" font-family="Nunito, sans-serif" text-anchor="middle" dominant-baseline="middle">50</text>
<text x="181.894" y="268.731" fill="#555" font-size="7.65" font-family="Nunito, sans-serif" text-anchor="middle" dominant-baseline="middle">51</text>
<text x="181.894" y="255.847" fill="#555" font-size="7.65" font-family="Nunito, sans-serif" text-anchor="middle" dominant-baseline="middle">52</text>
<text x="181.894" y="242.962" fill="#555" font-size="7.65" font-family="Nunito, sans-serif" text-anchor="middle" dominant-baseline="middle">53</text>
<text x="181.894" y="230.078" fill="#555" font-size="7.65" font-family="Nunito, sans-serif" text-anchor="middle" dominant-baseline="middle">54</text>
<text x="181.894" y="217.194" fill="#555" font-size="7.65" font-family="Nunito, sans-serif" text-anchor="middle" dominant-baseline="middle">55</text>
<text x="181.894" y="204.309" fill="#555" font-size="7.65" font-family="Nunito, sans-serif" text-anchor="middle" dominant-baseline="middle">56</text>
<text x="184.686" y="184.686" fill="#555" font-size="7.65" font-family="Nunito, sans-serif" text-anchor="middle" dominant-baseline="middle">57</text>
<text x="204.309" y="181.894" fill="#555" font-size="7.65" font-family="Nunito, sans-serif" text-anchor="middle" dominant-baseline="middle">58</text>
<text x="217.194" y="181.894" fill="#555" font-size="7.65" font-family="Nunito, sans-serif" text-anchor="middle" dominant-baseline="middle">59</text>
<text x="230.078" y="181.894" fill="#555" font-size="7.65" font-family="Nunito, sans-serif" text-anchor="middle" dominant-baseline="middle">60</text>
<text x="242.962" y="181.894" fill="#555" font-size="7.65" font-family="Nunito, sans-serif" text-anchor="middle" dominant-baseline="middle">61</text>
<text x="255.847" y="181.894" fill="#555" font-size="7.65" font-family="Nunito, sans-serif" text-anchor="middle" dominant-baseline="middle">62</text>
<text x="268.731" y="181.894" fill="#555" font-size="7.65" font-family="Nunito, sans-serif" text-anchor="middle" dominant-baseline="middle">63</text>
<text x="281.616" y="181.894" fill="#555" font-size="7.65" font-family="Nunito, sans-serif" text-anchor="middle" dominant-baseline="middle">64</text>
</svg>