<?xml version="1.0" encoding="UTF-8"?>
<svg xmlns="http://www.w3.org/2000/svg" version="1.1" width="588" height="588" viewBox="0 0 588 588">
<line x1="294" y1="88.2" x2="396.9" y2="88.2" stroke="#000000" stroke-width="2" stroke-linecap="round" stroke-linejoin="round"/>
<line x1="396.9" y1="88.2" x2="499.8" y2="88.2" stroke="#000000" stroke-width="2" stroke-linecap="round" stroke-linejoin="round"/>
<line x1="499.8" y1="88.2" x2="499.8" y2="191.1" stroke="#000000" stroke-width="2" stroke-linecap="round" stroke-linejoin="round"/>
<line x1="499.8" y1="191.1" x2="499.8" y2="294" stroke="#000000" stroke-width="2" stroke-linecap="round" stroke-linejoin="round"/>
<line x1="499.8" y1="294" x2="499.8" y2="396.9" stroke="#000000" stroke-width="2" stroke-linecap="round" stroke-linejoin="round"/>
<line x1="499.8" y1="396.9" x2="499.8" y2="499.8" stroke="#000000" stroke-width="2" stroke-linecap="round" stroke-linejoin="round"/>
<line x1="499.8" y1="499.8" x2="396.9" y2="499.8" stroke="#000000" stroke-width="2" stroke-linecap="round" stroke-linejoin="round"/>
<line x1="396.9" y1="499.8" x2="294" y2="499.8" stroke="#000000" stroke-width="2" stroke-linecap="round" stroke-linejoin="round"/>
<line x1="294" y1="499.8" x2="191.1" y2="499.8" stroke="#000000" stroke-width="2" stroke-linecap="round" stroke-linejoin="round"/>
<line x1="191.1" y1="499.8" x2="88.2" y2="499.8" stroke="#000000" stroke-width="2" stroke-linecap="round" stroke-linejoin="round"/>
<line x1="88.2" y1="499.8" x2="88.2" y2="396.9" stroke="#000000" stroke-width="2" stroke-linecap="round" stroke-linejoin="round"/>
<line x1="88.2" y1="396.9" x2="88.2" y2="294" stroke="#000000" stroke-width="2" stroke-linecap="round" stroke-linejoin="round"/>
<line x1="88.2" y1="294" x2="88.2" y2="191.1" stroke="#000000" stroke-width="2" stroke-linecap="round" stroke-linejoin="round"/>
<line x1="88.2" y1="191.1" x2="88.2" y2="88.2" stroke="#000000" stroke-width="2" stroke-linecap="round" stroke-linejoin="round"/>
<line x1="88.2" y1="88.2" x2="191.1" y2="88.2" stroke="#000000" stroke-width="2" stroke-linecap="round" stroke-linejoin="round"/>
<line x1="191.1" y1="88.2" x2="294" y2="88.2" stroke="#000000" stroke-width="2" stroke-linecap="round" stroke-linejoin="round"/>
<circle cx="294" cy="88.2" r="3" fill="#333"/>
<circle cx="396.9" cy="88.2" r="3" fill="#333"/>
<circle cx="499.8" cy="88.2" r="3" fill="#333"/>
<circle cx="499.8" cy="191.1" r="3" fill="#333"/>
<circle cx="499.8" cy="294" r="3" fill="#333"/>
<circle cx="499.8" cy="396.9" r="3" fill="#333"/>
<circle cx="499.8" cy="499.8" r="3" fill="#333"/>
<circle cx="396.9" cy="499.8" r="3" fill="#333"/>
<circle cx="294" cy="499.8" r="3" fill="#333"/>
<circle cx="191.1" cy="499.8" r="3" fill="#333"/>
<circle cx="88.2" cy="499.8" r="3" fill="#333"/>
<circle cx="88.2" cy="396.9" r="3" fill="#333"/>
<circle cx="88.2" cy="294" r="3" fill="#333"/>
<circle cx="88.2" cy="191.1" r="3" fill="#333"/>
<circle cx="88.2" cy="88.2" r="3" fill="#333"/>
<circle cx="191.1" cy="88.2" r="3" fill="#333"/>
</svg>