<?xml version="1.0" encoding="UTF-8"?>
<svg xmlns="http://www.w3.org/2000/svg" version="1.1" width="588" height="588" viewBox="0 0 588 588">
<line x1="294" y1="88.2" x2="472.228" y2="191.1" stroke="#000000" stroke-width="2" stroke-linecap="round" stroke-linejoin="round"/>
<line x1="472.228" y1="191.1" x2="472.228" y2="396.9" stroke="#000000" stroke-width="2" stroke-linecap="round" stroke-linejoin="round"/>
<line x1="472.228" y1="396.9" x2="294" y2="499.8" stroke="#000000" stroke-width="2" stroke-linecap="round" stroke-linejoin="round"/>
<line x1="294" y1="499.8" x2="115.772" y2="396.9" stroke="#000000" stroke-width="2" stroke-linecap="round" stroke-linejoin="round"/>
<line x1="115.772" y1="396.9" x2="115.772" y2="191.1" stroke="#000000" stroke-width="2" stroke-linecap="round" stroke-linejoin="round"/>
<line x1="115.772" y1="191.1" x2="294" y2="88.2" stroke="#000000" stroke-width="2" stroke-linecap="round" stroke-linejoin="round"/>
<line x1="396.9" y1="115.772" x2="499.8" y2="294" stroke="#000000" stroke-width="2" stroke-linecap="round" stroke-linejoin="round"/>
<line x1="499.8" y1="294" x2="396.9" y2="472.228" stroke="#000000" stroke-width="2" stroke-linecap="round" stroke-linejoin="round"/>
<line x1="396.9" y1="472.228" x2="191.1" y2="472.228" stroke="#000000" stroke-width="2" stroke-linecap="round" stroke-linejoin="round"/>
<line x1="191.1" y1="472.228" x2="88.2" y2="294" stroke="#000000" stroke-width="2" stroke-linecap="round" stroke-linejoin="round"/>
<line x1="88.2" y1="294" x2="191.1" y2="115.772" stroke="#000000" stroke-width="2" stroke-linecap="round" stroke-linejoin="round"/>
<line x1="191.1" y1="115.772" x2="396.9" y2="115.772" stroke="#000000" stroke-width="2" stroke-linecap="round" stroke-linejoin="round"/>
<line x1="320.632" y1="89.931" x2="320.632" y2="194.606" stroke="#000000" stroke-width="2" stroke-linecap="round" stroke-linejoin="round"/>
<line x1="320.632" y1="194.606" x2="320.632" y2="393.394" stroke="#000000" stroke-width="2" stroke-linecap="round" stroke-linejoin="round"/>
<line x1="320.632" y1="393.394" x2="320.632" y2="498.069" stroke="#000000" stroke-width="2" stroke-linecap="round" stroke-linejoin="round"/>
<line x1="372.97" y1="484.045" x2="320.632" y2="393.394" stroke="#000000" stroke-width="2" stroke-linecap="round" stroke-linejoin="round"/>
<line x1="320.632" y1="393.394" x2="221.239" y2="221.239" stroke="#000000" stroke-width="2" stroke-linecap="round" stroke-linejoin="round"/>
<line x1="221.239" y1="221.239" x2="168.901" y2="130.587" stroke="#000000" stroke-width="2" stroke-linecap="round" stroke-linejoin="round"/>
<line x1="130.587" y1="168.901" x2="221.239" y2="221.239" stroke="#000000" stroke-width="2" stroke-linecap="round" stroke-linejoin="round"/>
<line x1="221.239" y1="221.239" x2="393.394" y2="320.632" stroke="#000000" stroke-width="2" stroke-linecap="round" stroke-linejoin="round"/>
<line x1="393.394" y1="320.632" x2="484.045" y2="372.97" stroke="#000000" stroke-width="2" stroke-linecap="round" stroke-linejoin="round"/>
<line x1="498.069" y1="320.632" x2="393.394" y2="320.632" stroke="#000000" stroke-width="2" stroke-linecap="round" stroke-linejoin="round"/>
<line x1="393.394" y1="320.632" x2="194.606" y2="320.632" stroke="#000000" stroke-width="2" stroke-linecap="round" stroke-linejoin="round"/>
<line x1="194.606" y1="320.632" x2="89.931" y2="320.632" stroke="#000000" stroke-width="2" stroke-linecap="round" stroke-linejoin="round"/>
<line x1="103.955" y1="372.97" x2="194.606" y2="320.632" stroke="#000000" stroke-width="2" stroke-linecap="round" stroke-linejoin="round"/>
<line x1="194.606" y1="320.632" x2="366.761" y2="221.239" stroke="#000000" stroke-width="2" stroke-linecap="round" stroke-linejoin="round"/>
<line x1="366.761" y1="221.239" x2="457.413" y2="168.901" stroke="#000000" stroke-width="2" stroke-linecap="round" stroke-linejoin="round"/>
<line x1="419.099" y1="130.587" x2="366.761" y2="221.239" stroke="#000000" stroke-width="2" stroke-linecap="round" stroke-linejoin="round"/>
<line x1="366.761" y1="221.239" x2="267.368" y2="393.394" stroke="#000000" stroke-width="2" stroke-linecap="round" stroke-linejoin="round"/>
<line x1="267.368" y1="393.394" x2="215.03" y2="484.045" stroke="#000000" stroke-width="2" stroke-linecap="round" stroke-linejoin="round"/>
<line x1="267.368" y1="498.069" x2="267.368" y2="393.394" stroke="#000000" stroke-width="2" stroke-linecap="round" stroke-linejoin="round"/>
<line x1="267.368" y1="393.394" x2="267.368" y2="194.606" stroke="#000000" stroke-width="2" stroke-linecap="round" stroke-linejoin="round"/>
<line x1="267.368" y1="194.606" x2="267.368" y2="89.931" stroke="#000000" stroke-width="2" stroke-linecap="round" stroke-linejoin="round"/>
<line x1="215.03" y1="103.955" x2="267.368" y2="194.606" stroke="#000000" stroke-width="2" stroke-linecap="round" stroke-linejoin="round"/>
<line x1="267.368" y1="194.606" x2="366.761" y2="366.761" stroke="#000000" stroke-width="2" stroke-linecap="round" stroke-linejoin="round"/>
<line x1="366.761" y1="366.761" x2="419.099" y2="457.413" stroke="#000000" stroke-width="2" stroke-linecap="round" stroke-linejoin="round"/>
<line x1="457.413" y1="419.099" x2="366.761" y2="366.761" stroke="#000000" stroke-width="2" stroke-linecap="round" stroke-linejoin="round"/>
<line x1="366.761" y1="366.761" x2="194.606" y2="267.368" stroke="#000000" stroke-width="2" stroke-linecap="round" stroke-linejoin="round"/>
<line x1="194.606" y1="267.368" x2="103.955" y2="215.03" stroke="#000000" stroke-width="2" stroke-linecap="round" stroke-linejoin="round"/>
<line x1="89.931" y1="267.368" x2="194.606" y2="267.368" stroke="#000000" stroke-width="2" stroke-linecap="round" stroke-linejoin="round"/>
<line x1="194.606" y1="267.368" x2="393.394" y2="267.368" stroke="#000000" stroke-width="2" stroke-linecap="round" stroke-linejoin="round"/>
<line x1="393.394" y1="267.368" x2="498.069" y2="267.368" stroke="#000000" stroke-width="2" stroke-linecap="round" stroke-linejoin="round"/>
<line x1="484.045" y1="215.03" x2="393.394" y2="267.368" stroke="#000000" stroke-width="2" stroke-linecap="round" stroke-linejoin="round"/>
<line x1="393.394" y1="267.368" x2="221.239" y2="366.761" stroke="#000000" stroke-width="2" stroke-linecap="round" stroke-linejoin="round"/>
<line x1="221.239" y1="366.761" x2="130.587" y2="419.099" stroke="#000000" stroke-width="2" stroke-linecap="round" stroke-linejoin="round"/>
<line x1="168.901" y1="457.413" x2="221.239" y2="366.761" stroke="#000000" stroke-width="2" stroke-linecap="round" stroke-linejoin="round"/>
<line x1="221.239" y1="366.761" x2="320.632" y2="194.606" stroke="#000000" stroke-width="2" stroke-linecap="round" stroke-linejoin="round"/>
<line x1="320.632" y1="194.606" x2="372.97" y2="103.955" stroke="#000000" stroke-width="2" stroke-linecap="round" stroke-linejoin="round"/>
<circle cx="294" cy="88.2" r="3" fill="#333"/>
<circle cx="307.46" cy="88.641" r="3" fill="#333"/>
<circle cx="320.862" cy="89.961" r="3" fill="#333"/>
<circle cx="334.15" cy="92.154" r="3" fill="#333"/>
<circle cx="347.265" cy="95.212" r="3" fill="#333"/>
<circle cx="360.152" cy="99.122" r="3" fill="#333"/>
<circle cx="372.756" cy="103.866" r="3" fill="#333"/>
<circle cx="385.023" cy="109.424" r="3" fill="#333"/>
<circle cx="396.9" cy="115.772" r="3" fill="#333"/>
<circle cx="408.336" cy="122.884" r="3" fill="#333"/>
<circle cx="419.283" cy="130.728" r="3" fill="#333"/>
<circle cx="429.693" cy="139.271" r="3" fill="#333"/>
<circle cx="439.523" cy="148.477" r="3" fill="#333"/>
<circle cx="448.729" cy="158.307" r="3" fill="#333"/>
<circle cx="457.272" cy="168.717" r="3" fill="#333"/>
<circle cx="465.116" cy="179.664" r="3" fill="#333"/>
<circle cx="472.228" cy="191.1" r="3" fill="#333"/>
<circle cx="478.576" cy="202.977" r="3" fill="#333"/>
<circle cx="484.134" cy="215.244" r="3" fill="#333"/>
<circle cx="488.878" cy="227.848" r="3" fill="#333"/>
<circle cx="492.788" cy="240.735" r="3" fill="#333"/>
<circle cx="495.846" cy="253.85" r="3" fill="#333"/>
<circle cx="498.039" cy="267.138" r="3" fill="#333"/>
<circle cx="499.359" cy="280.54" r="3" fill="#333"/>
<circle cx="499.8" cy="294" r="3" fill="#333"/>
<circle cx="499.359" cy="307.46" r="3" fill="#333"/>
<circle cx="498.039" cy="320.862" r="3" fill="#333"/>
<circle cx="495.846" cy="334.15" r="3" fill="#333"/>
<circle cx="492.788" cy="347.265" r="3" fill="#333"/>
<circle cx="488.878" cy="360.152" r="3" fill="#333"/>
<circle cx="484.134" cy="372.756" r="3" fill="#333"/>
<circle cx="478.576" cy="385.023" r="3" fill="#333"/>
<circle cx="472.228" cy="396.9" r="3" fill="#333"/>
<circle cx="465.116" cy="408.336" r="3" fill="#333"/>
<circle cx="457.272" cy="419.283" r="3" fill="#333"/>
<circle cx="448.729" cy="429.693" r="3" fill="#333"/>
<circle cx="439.523" cy="439.523" r="3" fill="#333"/>
<circle cx="429.693" cy="448.729" r="3" fill="#333"/>
<circle cx="419.283" cy="457.272" r="3" fill="#333"/>
<circle cx="408.336" cy="465.116" r="3" fill="#333"/>
<circle cx="396.9" cy="472.228" r="3" fill="#333"/>
<circle cx="385.023" cy="478.576" r="3" fill="#333"/>
<circle cx="372.756" cy="484.134" r="3" fill="#333"/>
<circle cx="360.152" cy="488.878" r="3" fill="#333"/>
<circle cx="347.265" cy="492.788" r="3" fill="#333"/>
<circle cx="334.15" cy="495.846" r="3" fill="#333"/>
<circle cx="320.862" cy="498.039" r="3" fill="#333"/>
<circle cx="307.46" cy="499.359" r="3" fill="#333"/>
<circle cx="294" cy="499.8" r="3" fill="#333"/>
<circle cx="280.54" cy="499.359" r="3" fill="#333"/>
<circle cx="267.138" cy="498.039" r="3" fill="#333"/>
<circle cx="253.85" cy="495.846" r="3" fill="#333"/>
<circle cx="240.735" cy="492.788" r="3" fill="#333"/>
<circle cx="227.848" cy="488.878" r="3" fill="#333"/>
<circle cx="215.244" cy="484.134" r="3" fill="#333"/>
<circle cx="202.977" cy="478.576" r="3" fill="#333"/>
<circle cx="191.1" cy="472.228" r="3" fill="#333"/>
<circle cx="179.664" cy="465.116" r="3" fill="#333"/>
<circle cx="168.717" cy="457.272" r="3" fill="#333"/>
<circle cx="158.307" cy="448.729" r="3" fill="#333"/>
<circle cx="148.477" cy="439.523" r="3" fill="#333"/>
<circle cx="139.271" cy="429.693" r="3" fill="#333"/>
<circle cx="130.728" cy="419.283" r="3" fill="#333"/>
<circle cx="122.884" cy="408.336" r="3" fill="#333"/>
<circle cx="115.772" cy="396.9" r="3" fill="#333"/>
<circle cx="109.424" cy="385.023" r="3" fill="#333"/>
<circle cx="103.866" cy="372.756" r="3" fill="#333"/>
<circle cx="99.122" cy="360.152" r="3" fill="#333"/>
<circle cx="95.212" cy="347.265" r="3" fill="#333"/>
<circle cx="92.154" cy="334.15" r="3" fill="#333"/>
<circle cx="89.961" cy="320.862" r="3" fill="#333"/>
<circle cx="88.641" cy="307.46" r="3" fill="#333"/>
<circle cx="88.2" cy="294" r="3" fill="#333"/>
<circle cx="88.641" cy="280.54" r="3" fill="#333"/>
<circle cx="89.961" cy="267.138" r="3" fill="#333"/>
<circle cx="92.154" cy="253.85" r="3" fill="#333"/>
<circle cx="95.212" cy="240.735" r="3" fill="#333"/>
<circle cx="99.122" cy="227.848" r="3" fill="#333"/>
<circle cx="103.866" cy="215.244" r="3" fill="#333"/>
<circle cx="109.424" cy="202.977" r="3" fill="#333"/>
<circle cx="115.772" cy="191.1" r="3" fill="#333"/>
<circle cx="122.884" cy="179.664" r="3" fill="#333"/>
<circle cx="130.728" cy="168.717" r="3" fill="#333"/>
<circle cx="139.271" cy="158.307" r="3" fill="#333"/>
<circle cx="148.477" cy="148.477" r="3" fill="#333"/>
<circle cx="158.307" cy="139.271" r="3" fill="#333"/>
<circle cx="168.717" cy="130.728" r="3" fill="#333"/>
<circle cx="179.664" cy="122.884" r="3" fill="#333"/>
<circle cx="191.1" cy="115.772" r="3" fill="#333"/>
<circle cx="202.977" cy="109.424" r="3" fill="#333"/>
<circle cx="215.244" cy="103.866" r="3" fill="#333"/>
<circle cx="227.848" cy="99.122" r="3" fill="#333"/>
<circle cx="240.735" cy="95.212" r="3" fill="#333"/>
<circle cx="253.85" cy="92.154" r="3" fill="#333"/>
<circle cx="267.138" cy="89.961" r="3" fill="#333"/>
<circle cx="280.54" cy="88.641" r="3" fill="#333"/>
<circle cx="294" cy="191.1" r="3" fill="#333"/>
<circle cx="307.431" cy="191.98" r="3" fill="#333"/>
<circle cx="320.632" cy="194.606" r="3" fill="#333"/>
<circle cx="333.378" cy="198.933" r="3" fill="#333"/>
<circle cx="345.45" cy="204.886" r="3" fill="#333"/>
<circle cx="356.642" cy="212.364" r="3" fill="#333"/>
<circle cx="366.761" cy="221.239" r="3" fill="#333"/>
<circle cx="375.636" cy="231.358" r="3" fill="#333"/>
<circle cx="383.114" cy="242.55" r="3" fill="#333"/>
<circle cx="389.067" cy="254.622" r="3" fill="#333"/>
<circle cx="393.394" cy="267.368" r="3" fill="#333"/>
<circle cx="396.02" cy="280.569" r="3" fill="#333"/>
<circle cx="396.9" cy="294" r="3" fill="#333"/>
<circle cx="396.02" cy="307.431" r="3" fill="#333"/>
<circle cx="393.394" cy="320.632" r="3" fill="#333"/>
<circle cx="389.067" cy="333.378" r="3" fill="#333"/>
<circle cx="383.114" cy="345.45" r="3" fill="#333"/>
<circle cx="375.636" cy="356.642" r="3" fill="#333"/>
<circle cx="366.761" cy="366.761" r="3" fill="#333"/>
<circle cx="356.642" cy="375.636" r="3" fill="#333"/>
<circle cx="345.45" cy="383.114" r="3" fill="#333"/>
<circle cx="333.378" cy="389.067" r="3" fill="#333"/>
<circle cx="320.632" cy="393.394" r="3" fill="#333"/>
<circle cx="307.431" cy="396.02" r="3" fill="#333"/>
<circle cx="294" cy="396.9" r="3" fill="#333"/>
<circle cx="280.569" cy="396.02" r="3" fill="#333"/>
<circle cx="267.368" cy="393.394" r="3" fill="#333"/>
<circle cx="254.622" cy="389.067" r="3" fill="#333"/>
<circle cx="242.55" cy="383.114" r="3" fill="#333"/>
<circle cx="231.358" cy="375.636" r="3" fill="#333"/>
<circle cx="221.239" cy="366.761" r="3" fill="#333"/>
<circle cx="212.364" cy="356.642" r="3" fill="#333"/>
<circle cx="204.886" cy="345.45" r="3" fill="#333"/>
<circle cx="198.933" cy="333.378" r="3" fill="#333"/>
<circle cx="194.606" cy="320.632" r="3" fill="#333"/>
<circle cx="191.98" cy="307.431" r="3" fill="#333"/>
<circle cx="191.1" cy="294" r="3" fill="#333"/>
<circle cx="191.98" cy="280.569" r="3" fill="#333"/>
<circle cx="194.606" cy="267.368" r="3" fill="#333"/>
<circle cx="198.933" cy="254.622" r="3" fill="#333"/>
<circle cx="204.886" cy="242.55" r="3" fill="#333"/>
<circle cx="212.364" cy="231.358" r="3" fill="#333"/>
<circle cx="221.239" cy="221.239" r="3" fill="#333"/>
<circle cx="231.358" cy="212.364" r="3" fill="#333"/>
<circle cx="242.55" cy="204.886" r="3" fill="#333"/>
<circle cx="254.622" cy="198.933" r="3" fill="#333"/>
<circle cx="267.368" cy="194.606" r="3" fill="#333"/>
<circle cx="280.569" cy="191.98" r="3" fill="#333"/>
</svg>